<?xml version="1.0" encoding="utf-8"?>
<!-- Generator: Adobe Illustrator 24.3.0, SVG Export Plug-In . SVG Version: 6.00 Build 0)  -->
<svg version="1.1" id="Layer_1" xmlns="http://www.w3.org/2000/svg" xmlns:xlink="http://www.w3.org/1999/xlink" x="0px" y="0px"
	 viewBox="0 0 1500 2000" style="enable-background:new 0 0 1500 2000;" xml:space="preserve">
<style type="text/css">
	.st0{opacity:0.5;}
	.st1{fill:#F7EEE7;}
	.st2{fill:#E2D6CF;}
	.st3{fill:#14100F;}
	.st4{fill:url(#SVGID_1_);}
	.st5{fill:#2B2523;}
	.st6{fill:#88404A;}
	.st7{fill:url(#SVGID_2_);}
	.st8{display:none;}
	.st9{display:none;fill:#F7EEE7;}
	.st10{display:none;fill:#C38DD2;}
	.st11{display:none;fill:#997588;}
	.st12{display:none;fill:#FFDADA;}
	.st13{display:none;fill:#C9B9B1;}
	.st14{display:none;fill:#F8049C;}
	.st15{fill:none;stroke:#0D0016;stroke-width:2;stroke-linecap:round;stroke-linejoin:round;stroke-miterlimit:10;}
	.st16{fill:#0D0016;}
	.st17{fill:none;stroke:#000000;stroke-width:2;stroke-linecap:round;stroke-linejoin:round;stroke-miterlimit:10;}
	.st18{fill:#0D0016;stroke:#0D0016;stroke-width:0.5;stroke-linecap:round;stroke-linejoin:round;stroke-miterlimit:10;}
	.st19{fill:#997588;}
	.st20{fill:none;}
	.st21{fill:#190B09;}
	.st22{fill:#845D73;}
	.st23{fill:#4F3628;}
	.st24{fill:#FCDACA;}
	.st25{fill:#FFFFFF;}
	.st26{fill:#CCCACB;}
	.st27{fill:url(#SVGID_3_);}
	.st28{fill:#301F16;}
	.st29{fill:none;stroke:#000000;stroke-width:4;stroke-linecap:round;stroke-linejoin:round;stroke-miterlimit:10;}
	.st30{fill:none;stroke:#000000;stroke-miterlimit:10;}
	.st31{fill:#171617;stroke:#0D0016;stroke-width:0.5;stroke-linecap:round;stroke-linejoin:round;stroke-miterlimit:10;}
	.st32{fill:#B7729A;stroke:#997588;stroke-miterlimit:10;}
	.st33{opacity:0.3;fill:url(#SVGID_4_);}
	.st34{opacity:0.3;fill:url(#SVGID_5_);}
	.st35{fill:#37303F;}
	.st36{opacity:0.3;fill:url(#SVGID_6_);}
	.st37{opacity:0.3;fill:url(#SVGID_7_);}
	.st38{fill:#FFD0DB;}
	.st39{font-family:'Ollie';}
	.st40{font-size:175px;}
	.st41{fill:#CFC4B4;}
	.st42{fill:#FBD992;}
	.st43{opacity:0.3;fill:url(#SVGID_8_);}
	.st44{fill:#0A0908;}
	.st45{fill:#131112;}
	.st46{fill:#CE5442;}
	.st47{fill:#8C4356;}
	.st48{fill:#6B4780;}
	.st49{fill:#39181F;}
	.st50{fill:#171617;}
	.st51{fill:url(#SVGID_9_);}
	.st52{fill:#1E1611;}
	.st53{fill:url(#SVGID_10_);}
	.st54{fill:#FFF8F3;}
	.st55{fill:#FFD0DB;stroke:#586B76;stroke-width:1.7101;stroke-linecap:round;stroke-miterlimit:10;}
	.st56{fill:#FFF1F5;}
	.st57{fill:#FDA9B2;}
	.st58{fill:#D8F4FF;}
	.st59{fill:#4C535E;}
	.st60{fill:#FDAAB0;}
	.st61{fill:#F57D8D;}
	.st62{fill:#FEFDFF;}
	.st63{fill:#98E1F8;}
	.st64{fill:none;stroke:#586B76;stroke-width:1.7101;stroke-linecap:round;stroke-linejoin:round;stroke-miterlimit:10;}
	.st65{fill:#F99BAE;}
	.st66{fill:none;stroke:#586B76;stroke-width:1.3681;stroke-linecap:round;stroke-miterlimit:10;}
	.st67{fill:none;stroke:#4C535E;stroke-width:2.3796;stroke-miterlimit:10;}
	.st68{fill:none;stroke:#5E6574;stroke-width:2.0521;stroke-linecap:round;stroke-miterlimit:10;}
	.st69{fill:none;stroke:#586B76;stroke-width:1.7101;stroke-linecap:round;stroke-miterlimit:10;}
	.st70{fill:#586B76;}
	.st71{fill:none;stroke:#586B76;stroke-width:2.3796;stroke-linecap:round;stroke-miterlimit:10;}
	.st72{fill:#EE8192;}
	.st73{fill:#FA9AAE;}
	.st74{fill:#FFF0F5;}
	.st75{fill:none;stroke:#586B76;stroke-width:2.0521;stroke-linecap:round;stroke-miterlimit:10;}
	.st76{fill:#F8E1EA;}
	.st77{fill:none;stroke:#4C535E;stroke-width:1.7444;stroke-miterlimit:10;}
	.st78{fill:#D8F4FF;stroke:#586B76;stroke-width:1.3681;stroke-linecap:round;stroke-miterlimit:10;}
	.st79{fill:#9DDEF9;}
	.st80{fill:#A2E0FC;}
</style>
<image style="display:none;overflow:visible;" width="4032" height="3024" xlink:href="C:\Users\User\Downloads\Attachment_1621353202.jpeg"  transform="matrix(5.915119e-09 0.496 -0.496 5.915119e-09 1500 6.956181e-06)">
</image>
<path class="st0" d="M658.8,1399.6c1.7,13.4,12.2,25.7,21.1,45.5c8.9,19.8,43.1,34.8,71.8,39.1c28.7,4.2,67.9,1.7,80.5-2.8
	s49.1-30.2,48.3-48.8c-0.9-18.6-85.4-22.4-110.3-17.3c-24.9,5.1-111.5-24.6-111.4-19.6C659,1400.7,658.8,1399.6,658.8,1399.6z"/>
<path class="st1" d="M940.2,1147.7c-0.1,0.6-0.2,1.2-0.3,1.8c-0.3,1.7-0.5,3.5-0.8,5.5c-0.1,0.5-0.2,1.1-0.2,1.6
	c-0.1,0.9-0.3,1.9-0.4,2.8c-0.1,0.8-0.2,1.7-0.4,2.6c-0.4,2.8-0.8,5.7-1.2,8.8c-0.2,1.8-0.5,3.6-0.7,5.4c-0.7,5.6-1.5,11.6-2.3,17.7
	c-0.1,1.1-0.3,2.2-0.4,3.3c-0.1,0.6-0.1,1.1-0.2,1.7c-0.1,1.1-0.3,2.2-0.4,3.3c0,0.2,0,0.4-0.1,0.5c-0.1,0.9-0.2,1.9-0.3,2.8
	c-0.2,1.3-0.3,2.7-0.5,4c-0.1,0.8-0.2,1.5-0.3,2.2c0,0.1,0,0.3,0,0.4c-0.1,0.6-0.1,1.1-0.2,1.7c-0.2,1.3-0.3,2.7-0.5,4
	c-0.2,1.9-0.5,3.9-0.7,5.8c-0.1,1.3-0.3,2.5-0.5,3.7c-0.1,0.6-0.1,1.3-0.2,1.9c-0.1,1-0.2,2.1-0.4,3.1c-0.1,0.5-0.1,1-0.2,1.5
	c0,0.4-0.1,0.7-0.1,1.1c0,0.2,0,0.3-0.1,0.4c0,0.3-0.1,0.7-0.1,1c0,0.4-0.1,0.8-0.1,1.2c0,0.4-0.1,0.8-0.1,1.2
	c-0.1,1-0.2,1.9-0.3,2.8c0,0,0,0,0,0c-15.6,97.9-31.5,135.9-41.1,162.9c-1.3,4.7-18.1,45.2-30.5,56.6c-11.4,10.6-26.1,25-57,23.4
	c-4.5-0.2-9.1-0.3-13.5-1.4c-14.7-3.6-25.2-3.2-40.5-4.2c-2.4-0.2-4.8-0.9-6.9-2.3c-3.7-2.4-7.3-5-24.8-7.6
	c-10.4-2-20.7-13.6-28.2-25.3c-5.6-8.6-9.7-17.2-11.3-21.9c-4.2-9.3-12.3-48.8-14.8-61.3c-0.2-1.3-0.6-2.5-1-3.8c0,0,0,0,0-0.1
	c-0.1-0.5-0.2-1-0.4-1.5v0c-0.3-1.5-0.7-3-1-4.5c0,0,0,0,0,0c-0.9-4.1-1.7-8.2-2.4-12.6c-2.5-15-3.9-32.4-3.3-56.1
	c0-0.2,0-0.4,0-0.6c0.1-4.4,0.3-9,0.6-13.9c0,0,0-0.1,0-0.1c0.3-4.8,0.6-9.9,1.1-15.2c1-17.6,2-31.9,3.2-43.9
	c3.5-36.5,7.3-49.9,8.7-60.7c0-0.1,0-0.1,0-0.2c0-0.2,0.1-0.5,0.1-0.7c2.1-19.8-3.4-27.1,4-37.5c1.4-1.9,3.2-4,5.5-6.2
	c35.6-27.6,233.8-12.7,263.5,34.8C940.1,1140.7,940.7,1144.3,940.2,1147.7z"/>
<path class="st2" d="M702.5,1172c15.7-1.7,16.4,8,19.8,10.5c3.4,2.5,5,3.4,10.6,11.9c5.6,8.5,3.2,9.2,6.6,14.2s1,9.3,0.7,14.1
	c-0.3,4.9,6.3,20.5-13.3,40.7c-5.8,3.4-14.3,8.4-11.2,11.8c3.1,3.4,12.4,2.9,14.9,12.6c7.1,6.9,0.9,23.1,4.6,15.8s9.9-2.1,11.9-6.5
	c2-4.4,4.5-4.4,4.8-2.7c0.3,1.6,13.1-14.2,12.8-4c-0.2,6.5-8,25.9-13.1,39.8c-3.3,9-13.6,17.9-22.6,11.4c-1.1-0.8-2.3-1.1-3.6-1
	c-2.6,0.2-5.9-1.1-5.1,1.6c2.6,3.6,2.1,25.2,2.1,25.2s-0.2,17-6.2,9.9c-0.3,16.3-6,27.4,0.9,50.4c6.9,23-3.8,25.3-3.8,25.3
	s-18.5-11.8-19-8.4c-0.1,0.6-3,2.5-4.5-5.9c-1.5-8.3,5-27.1,0.7-38.1c-4.3-11-10.4-67.2-10.4-74.5s32.7-58.5,36.5-85.8
	C720.2,1213.3,716.1,1172.3,702.5,1172z"/>
<path class="st3" d="M715.1,1448.1c-0.4,1.8-1.5,2.4-3.1,2.2c-4.1-0.6-11.5-6.3-19.2-9.7c-10.7-4.7-4.5-8.8-5.2-12.3
	c-4.3-13.4-9.1-60.2-9.2-64.1l-1.3-10.4c0,0-0.9-14.4,0.8-14.4c1.8,0,26.7,6.3,27.2,6.6c0.5,0.2,8.5,13.2,8.4,16.8
	c-0.1,3.1,1.3,4,1.3,8.6c0,0.7,0,1.5-0.1,2.4c-4.2,16.3-1.8,44.2-1.4,51.5C713.4,1431.5,718,1438.4,715.1,1448.1z"/>
<linearGradient id="SVGID_1_" gradientUnits="userSpaceOnUse" x1="700.1666" y1="1250.2845" x2="695.4855" y2="1279.3005">
	<stop  offset="0.4151" style="stop-color:#D6AD96"/>
	<stop  offset="0.6011" style="stop-color:#E6C0AC"/>
	<stop  offset="0.8444" style="stop-color:#F6D3C2"/>
	<stop  offset="1" style="stop-color:#FCDACA"/>
</linearGradient>
<path class="st4" d="M683.8,1260.6c0,0,0.9,16.8,1.3,16.8c0.4,0,16.6,6.5,17.4,4.2s10.6-20.9,10.7-20.9c0.1,0-5.6-8.2-6.8-8.2
	s-16.7-1.4-17.8,1C687.5,1255.8,683.8,1260.6,683.8,1260.6z"/>
<path class="st5" d="M715.1,1448.1c-0.4,1.8-1.5,2.4-3.1,2.2c2.2-0.8,1.1-6.6-1.3-16.3c-2.4-9.8-0.4-58.2,0-59.5
	c0,0,0.6-2.1,4.2-3.1c0,0.7,0,1.5-0.1,2.4c-4.2,16.3-1.8,44.2-1.4,51.5C713.4,1431.5,718,1438.4,715.1,1448.1z"/>
<path class="st6" d="M678,1344.5c0,0-2.6,13.6-3.6,0.6c-1-13,2.1-33.2,2.1-33.2c-1.6-5.6-4.7-9.5-4.7-19.7c0-10.3,4.3-10.1,6.1-18.9
	c1.9-8.8,9.1-3.9,9.1-3.9c3.1,5,3,10.2,5.6,9.5s1.6-2.4,3-2.1c4.6-6.6,11.7,7.6,9.6,20.9c-2.1,13.3-6.1,34.3-5.9,41.5
	c0.2,7.2-6.9,9.3-6.9,9.3"/>
<image style="display:none;overflow:visible;" width="4032" height="3024" xlink:href="C:\Users\User\Downloads\Attachment_1621353202.jpeg"  transform="matrix(5.915119e-09 0.496 -0.496 5.915119e-09 -259.1255 134.4189)">
</image>
<radialGradient id="SVGID_2_" cx="839.0078" cy="1324.734" r="116.8403" gradientUnits="userSpaceOnUse">
	<stop  offset="0.1384" style="stop-color:#FFFFFF"/>
	<stop  offset="0.2689" style="stop-color:#FBF8FC"/>
	<stop  offset="0.4598" style="stop-color:#F1E4F4"/>
	<stop  offset="0.6876" style="stop-color:#E0C4E8"/>
	<stop  offset="0.942" style="stop-color:#C998D6"/>
	<stop  offset="1" style="stop-color:#C38DD2"/>
</radialGradient>
<path class="st7" d="M921.4,1256.3c8.8,33.5-12.2,175.5-96,166.1c-87.9-8.5-107.2-173,42.6-196.5
	C910.8,1220.3,921.4,1256.3,921.4,1256.3z"/>
<circle class="st8" cx="476.1" cy="2189.1" r="102.5"/>
<circle class="st9" cx="24.9" cy="2509.4" r="109.8"/>
<circle class="st10" cx="789" cy="2509.4" r="133"/>
<circle class="st10" cx="399.7" cy="2804.4" r="133"/>
<circle class="st11" cx="838.5" cy="2163.7" r="128"/>
<circle class="st12" cx="1118.4" cy="2167.4" r="128"/>
<circle class="st9" cx="1438.1" cy="2167.4" r="128"/>
<circle class="st13" cx="1958" cy="1318.9" r="128"/>
<circle class="st14" cx="1092.8" cy="2505.1" r="128"/>
<circle class="st11" cx="1457.7" cy="2509.4" r="128"/>
<image style="display:none;overflow:visible;" width="1125" height="2436" xlink:href="C:\Users\User\Downloads\Attachment_1621353774.png"  transform="matrix(1 0 0 1 -3248.5291 -621.7119)">
</image>
<path class="st15" d="M875.2,521.5"/>
<path class="st15" d="M863.7,639.3c-1.8-20.3,0-37.2-0.2-44.7c2.5-16.9,18.4-26.5,11.1-74"/>
<path class="st15" d="M870.6,711.7c2.4,6.8,7.5,13.5,7.6,14.4c0.1,0.9,0.5,4.5,2.4,4.1c1.5-0.1-0.8,1.4,1.6,3.6
	c2.4,2.1,0.2,31.1-56.9,48c-8.4,2.1-40.5,6.3-62.8,3.6c-16.7-2.1-29-4.1-40.3-7c-9-2.8-10-3.4-13.2-3.3c-1.4-1-3.6-2.5-7.2-2
	c-0.9,0.1-0.8-3.1-7.4-2.6c-1,0,1.6-1.7-5.5-2c-1.8,0,0.4-1.9-7.6-3.3c-0.6,0,1.2-1.8-5.4-1.6c-0.5,0,0-2.9-4-2.9
	c-0.8,0.2-1.4-2-3.4-2.6s-15.6-9.5-15.7-13.7c0,0,5.2-3.5,5.2-24.3c0-22.8-17-56.5-26.1-80.5"/>
<path class="st15" d="M864,591.9c-29,42.6-32,66.3-82.8,83.4c-67.5,19.1-121.6-7.7-150.3-37.1"/>
<path class="st15" d="M866.8,491.8"/>
<path class="st15" d="M866.8,491.8c-4.6-7.6-6.4-13.5-7.3-18.5c-1.4-7.7-3.1-15.4-5.3-22.9c-3.7-12.4-7.8-30-9.4-31.6"/>
<path class="st15" d="M593.4,739.4c-0.8,1.7-0.9,3.1-0.7,3.9c-1.1,2.2,0.2,3.7-0.1,4.4c-0.3,0.7-1.2,3.2-0.4,5.3
	c0.8,2.1,0,3.3,1.7,5.5c0.7,0.8-0.7,2.1,1.1,5c0.5,0.8,0.2,2.4,2.2,4.1c0.5,1.2,0.9,2,1.6,2.6c0.8,0.7,1.5,1.5,2,2.5
	c0.5,1.1,1.2,2.2,3.2,3.7c0.5,0.4,0.9,0.8,1.3,1.3c0.7,1,1.6,1.6,2.7,2.3c0.4,0.3,0.7,0.6,1,0.9c1.4,1.5,3.5,3.2,4.6,3.8
	c1.3,0.6,10.5,10.4,15.7,15c5.2,4.6,19.5,14.7,27,17.6c7.5,2.9,17.2,8.5,25.9,9.6c1.4,0.2,0.6,2.1,7.7,2.1c0,0,0,0,0,0
	c0.4,1.1,3.4,2.6,10.6,2.6c0,0,0,0,0,0c3.1,3,6.1,2.9,10.5,3.9c4.4,1,7.4,1.3,11.7,0.5c5.3-0.8,9.5,3.1,11,2.8
	c1.6-0.4,3.2-0.6,4.8-0.1c2.5,0.9,5.2,1.6,6.5,1.4c1.2-0.2,2.4-0.1,3.5,0.3c7.4,2.4,28.8,5.8,61.9,1c38.9-5.6,54.2-6.7,83-28.4
	s32-18.4,35.6-39c0.1-3.3,9.7-10.6,5.2-18.6"/>
<path class="st15" d="M1006.4,1785.2c-13.8,34.7-78.8,56.7-98.9,64.4c-1.5,0.6-2.9,1.3-4.3,2.2c-17.8,11.3-40.1,15-57.1,20.1
	c-17.6,5.3-34.5,5-38,7.5c-4.8,3-17.7,2.7-23.6,2.8c-2.2,0-4.7,0-7.3,0c-3.1-0.1-6.2,0.6-9.1,1.6c-3.3,1.1-9.3,0-15-1.7
	c-2.2-0.7-4.5-1-6.9-1c-6.1,0.2-12.5,1.7-17.1,3.5c-0.4,0.2-0.9,0.3-1.3,0.5c-36,11.7-46.5-5.4-126.7-7.9c-0.6,0-1.1-0.1-1.7-0.1
	c-15.3-1.6-91.6-12.2-123.2-19.6c-12.4-2.7-20.9-6-31.5-11c-12.1-5.7-27-13.5-53.5-24.9c-1-0.4-2-0.8-3-1.1
	c-33.1-9.5-45.6-31.6-46.9-32.1c-7.3-2.5-4.1-11.2-8.4-15.1c-1.4-1.5-7.1-5.3-7.7-6.9c-0.2-1-1.8-0.3-3.6-0.1c-0.1,0-0.3,0-0.4,0.1"
	/>
<g>
	<path class="st16" d="M998.2,1439.7c9.5-5.8,18-13.2,25.3-21.6c7.3-8.4,13.4-17.8,17.8-28c4.4-10.1,7.2-21,7.7-32
		c0.2-5.5-0.1-11-1-16.5l-0.4-2l-0.4-2l-0.5-2c-0.2-0.6-0.5-1.3-0.7-1.9l-0.4-0.9l-0.4-0.9l-0.9-1.8c-0.7-1.2-1.3-2.4-2.1-3.5
		c-0.7-1.2-1.6-2.2-2.4-3.3c-0.4-0.5-0.9-1-1.3-1.5c-0.4-0.5-0.9-1-1.4-1.5c-1.9-1.9-4-3.7-6.3-5.2c-2.2-1.6-4.6-2.9-7.1-4.2
		c-2.5-1.2-5-2.3-7.6-3.2c-10.4-3.7-21.5-5.4-32.5-5.9c-1.3,0-2.7,0.2-4,0.5c-1.3,0.3-2.7,0.8-4.1,1c-1.4,0.2-2.9,0.3-4.3,0.3
		c-0.7,0-1.4,0-2.1-0.1c-0.7,0-1.4-0.1-2.1-0.2c-0.7-0.1-1.5-0.3-2.1-0.5l-2-0.6c-1.3-0.4-2.7-0.8-4-1.2c-2.7-0.8-5.3-1.8-7.9-2.9
		c-0.6-0.3-1.3-0.6-1.9-0.9c-0.3-0.2-0.6-0.3-1-0.5c-0.3-0.2-0.6-0.5-0.9-0.7c-1-1.1-1.8-2.1-2.8-3.1c-1-0.9-2.1-1.8-3.3-2.5
		c-0.6-0.3-1.2-0.8-1.7-1.3c-0.5-0.5-0.9-1.1-1.3-1.8c-0.7-1.2-1.3-2.4-2.2-3.5c-0.8-1.1-1.9-2-2.9-2.9c-2.1-1.8-4.5-3.2-7-4.6
		c2.5,1.3,4.9,2.7,7.1,4.3c1.1,0.9,2.2,1.8,3.1,2.9c0.9,1.1,1.6,2.3,2.3,3.5c0.3,0.6,0.7,1.1,1.2,1.6c0.5,0.5,1,0.8,1.6,1.2
		c1.2,0.7,2.4,1.5,3.4,2.5c1.1,0.9,2,2.1,2.9,3c0.5,0.5,0.9,0.8,1.6,1c0.6,0.3,1.3,0.6,1.9,0.8c2.5,1.1,5.2,2,7.8,2.8
		c1.3,0.4,2.7,0.7,4,1.1c1.4,0.3,2.7,0.8,4,0.9c2.7,0.2,5.5,0.3,8.1-0.2c1.3-0.2,2.6-0.7,4-1.1c1.4-0.3,2.8-0.6,4.3-0.6
		c5.7,0.1,11.2,0.6,16.8,1.5c5.5,0.9,11,2.2,16.3,4.1c2.7,0.9,5.3,2,7.8,3.3c2.5,1.2,5,2.6,7.3,4.3c2.3,1.6,4.6,3.4,6.6,5.4
		c2,2,3.9,4.2,5.4,6.6c0.8,1.2,1.5,2.5,2.2,3.7l0.9,1.9l0.4,1l0.4,1c0.2,0.7,0.5,1.4,0.7,2l0.5,2.1l0.5,2.1l0.3,2.1
		c0.9,5.6,1.2,11.2,1,16.9c-0.5,11.3-3.4,22.4-8.1,32.6C1033.3,1411.2,1017.6,1428.7,998.2,1439.7z"/>
</g>
<path class="st15" d="M812.2,359.1c3.5,2.4,5.9,10.2,6,10.9"/>
<path d="M693.9,426.3c-2.4-3.5-2.1-12.5-2.2-13.7c0.9,0.9,2,1.4,2.5,1.3c-1.1-2.1-2-6.1-1.2-8.6c1.2,1,3,0.7,3,0.7s-1.5-3.6,1-5.9
	c0.1,2.4,1.4,3.5,1.4,3.5c-0.2-2.8,0.5-2.7,1.8-4.5c0.3,1.6,1.3,1.8,1.3,1.8c-0.3-2,0.3-3,0.3-3s0,2.1,0.9,2.3
	c2.8-10.4,37.4-38.4,53.3-40.2c1.7,0,1.6,0.1,3.2,0.8c14.3,6.3,20.8-4.2,30.6,10.4c0.5,4.6-19.3-1.8-33.7,1.2
	C727.2,383.8,699,433.8,693.9,426.3z"/>
<path d="M661.7,445.7c5.6-7.7,3.4-15.7,3.1-16.6c-1.2,2.1-3.4,2.4-3.4,2.4s1.5-4.4,0-5.5c-1.2,2.7-2.3,4-2.3,4
	c0.3-1.2-3.3-4.3-3.8-4c1.1,1.4-0.2,4-0.2,4s-2.7-4-3.7-4c1.9,3.3,2,4.8,2,4.8s-3.7,1.4-5.9,0.5c-2.2-0.9-7.2-4.3-11.7-4.4
	c3.9,2.5,5.3,5.5,5.3,5.5c-5.3-0.9-15.6-3.9-40.3,9.9c-10,5.9-18,14.6-23.1,25c-4,8.3-7.8,17.4-13.1,24.9c-1.6,4.3,5.9-2,14.2-11.8
	c8.3-9.8,16.4-26.5,45.6-28.3C653.9,450.4,661.7,445.7,661.7,445.7z"/>
<image style="display:none;overflow:visible;" width="1125" height="2436" xlink:href="C:\Users\User\Downloads\Attachment_1621353774(1).png"  transform="matrix(1 0 0 1 3398.2947 -230.805)">
</image>
<path d="M763.9,412.5c0,1.5-0.4,3-0.9,4.4c-4.4,3.5-10.7,6-16.7,7.4c-4.1-1.5-7.2-5-8.1-9.3c6.8-5.3,17.7-7.8,24.8-7.7
	C763.6,408.8,763.9,410.6,763.9,412.5z"/>
<path class="st17" d="M404.4,1463.4c4.9,3.1,15.7,0.2,19.4,1.6c19.8,6.3,69.9,57.2,141.2,14.7c1.3-0.8,2.8-1.4,4.3-1.9
	c4.3-1.3,9-1.1,13.2,0.8c14.2,6.3,28.5,23.8,32.3,29.6c11,21.4,19.4,23.4,27.7,31.6c15.2,21,27.8,18.3,34.1,14.1
	c1.6-1.1,3.7-0.7,4.8,0.8c3.4,4.3,6.7,4.7,8.6,4.8c0.9,0.1,1.7,0.4,2.3,1c1.3,1.3,1.5,2.4,6.3,8.4c0.2,0.2,0.4,0.4,0.6,0.6
	c2,1.8,2.9,6.9,9.8,11.9c0.2,0.1,0.3,0.3,0.5,0.4c5.8,6,9.8,2.3,14.7,2.6c4.4,0.3,13.7-5.3,18.1-8.7c0.8-0.7,1.9-0.8,3-0.7
	c1.9,0.3,4.4-0.3,6.5-1.5c1.1-0.6,2.4-0.6,3.5,0l3.6,1.8c0.6,0.3,1.1,0.8,1.5,1.4c10.4,17.2,23.4,4.8,27.5-3.8
	c0.9-1.9,3.4-2.7,5.3-1.8c12.6,6.4,19.5-0.8,23.6-4.3c1.3-1.1,3.2-1.2,4.6-0.2c14.1,10.6,32.8-9.3,33.6-11.5c0-0.1,0-0.2,0.1-0.2
	c1.1-3.4,3.1-4.5,10.2-9.2c5.9,2.3,6.4-2.2,8-1.9c6.5,1.5,10.5,2.9,18.3-0.8c4.6-2.4,8.5-6,11.6-10.2c4.4-6,10.6-8.1,12.5-10.9
	c0-0.1,0.1-0.1,0.1-0.2c2.8-7.6,12.5-12.5,16-11.9c27,2.1,34.7-15.4,36.9-20.4c2.2-5,6.9-3.7,9.1-2.8c0,0,0,0,0,0
	c11.7,6.2,20.6,5.6,27.1,1.7c9.4-5.6,12.5-17.6,7.8-27.5c-6.3-13.3-19.6-27.7-19.3-32.6c0.9-9-2.4-15.9-2.1-21.1
	c0.8-25.2-3.2-20.9-4.6-28.5c-1.2-6.8-1-15.5-2.9-38.2c-0.4-4.9-2.2-9.6-5.2-13.5c-7.1-9.2-17.3-26.7-29.7-31.7"/>
<path class="st18" d="M755,508.3c-5.3,1.9-13.3,7.8-14.3,12c-0.3,1.2-0.6,2.3-1.3,3.3c-2.6,3.9-6.3,2.4-4.5-1.2
	c1.5-4.3,11.1-15.8,19.1-14.7C756.1,508.2,757,507.6,755,508.3z"/>
<path class="st18" d="M699,538.5c6-1.9,11.4-4.5,19.1-3.5c0.8,0.1,1.1-1,0.3-1.3c-5.9-2.6-18.8-4.7-21.8,2.9
	C696.4,537.5,695.8,539.5,699,538.5z"/>
<path class="st19" d="M687,598.6c31.9-17.3,29.7-32.3,54.6-37.5c3.6-0.8,7-2.5,9.7-4.9c18.5-16.2,42.9-17,54.1-23.1
	c1.4-0.7,2.5,0,1.8,1.4c-8.8,10.4-23.3,43-48.5,51.9c-1.7,0.6-3.4,1.5-4.9,2.4C735.4,600.4,710.1,594.1,687,598.6z"/>
<path class="st18" d="M830.7,529.1c-0.7-5.2-4.5-15.8-11.9-20.1s-34.2-12.6-51.4-23.8c6,6.2,27.1,17.5,49.2,27.1
	C823.7,517.2,829,523.9,830.7,529.1z"/>
<path class="st18" d="M665.1,579.1c-4.5,15.5-0.5,30.3,16.5,34.4C672.5,608,663.4,603,665.1,579.1z"/>
<path class="st15" d="M615.9,617.9c-8.8-16.1-29-46.3-46-71.9"/>
<path class="st15" d="M617.2,1290.1c-19.8-8.4-31.2-15.5-51.5-12.7c-3.6,0.5-7,1.4-10.4,2.8c-15.9,6.6-38.6,7.2-48.8,16.4
	c-3.9,4.9-24.1,0.2-44,32.2c-2.8,4.6-6,8.9-9.3,13.2c-8,10.3-7.3,16.3-18,30.9c-10.8,11.8-1.6,55.9,41.7,37.9
	c32.6-17.9,17.3-31.7,33-41.6c0.4,39,25,40.1,37.3,66.3c9.5,17.4,1.8,25.6,14.4,31.7c5.9,3.5,8.1,11.9,8.1,11.9"/>
<path class="st20" d="M664.8,1147.5C664.8,1147.5,664.8,1147.5,664.8,1147.5c0-0.1,0-0.1,0-0.2c0-0.2,0.1-0.5,0.1-0.7
	c2.2-20.7-3.9-27.8,5.1-39c1.2-1.5,2.6-3,4.4-4.7c0.7-0.5,1.4-1.1,2.2-1.5c0.2-0.1,0.3-0.2,0.5-0.3c39.8-23.8,213.3-11.2,255.3,29.9
	c0,0,0,0,0,0c2.2,2.1,4,4.3,5.4,6.6c1,1.6,1.7,3.4,2,5.3c0,0,0,0,0,0c0,0.1,0,0.3,0.1,0.4c0.2,1.4,0.2,2.8-0.1,4.2
	c-0.1,0.6-0.2,1.2-0.3,1.8c-0.3,1.7-0.5,3.5-0.8,5.5c-0.1,0.5-0.2,1.1-0.2,1.6c-0.1,0.9-0.3,1.9-0.4,2.8c-0.1,0.8-0.2,1.7-0.4,2.6
	c-0.4,2.8-0.8,5.7-1.2,8.8c-0.2,1.8-0.5,3.6-0.7,5.4c-0.7,5.6-1.5,11.6-2.3,17.7c-0.1,1.1-0.3,2.2-0.4,3.3c-0.1,0.6-0.1,1.1-0.2,1.7
	c-0.1,1.1-0.3,2.2-0.4,3.3c0,0.2,0,0.4-0.1,0.5c-0.1,0.9-0.2,1.9-0.3,2.8c-0.2,1.3-0.3,2.7-0.5,4c-0.1,0.8-0.2,1.5-0.3,2.2
	c0,0.1,0,0.3,0,0.4c-0.1,0.6-0.1,1.1-0.2,1.7c-0.2,1.3-0.3,2.7-0.5,4c-0.2,2-0.5,3.9-0.7,5.8c-0.1,1.3-0.3,2.5-0.5,3.7
	c-0.1,0.6-0.1,1.3-0.2,1.9c-0.1,1-0.2,2.1-0.4,3.1c-0.1,0.5-0.1,1-0.2,1.5c0,0.4-0.1,0.7-0.1,1.1c0,0.2,0,0.3-0.1,0.4
	c0,0.3-0.1,0.7-0.1,1c0,0.4-0.1,0.8-0.1,1.2c0,0.4-0.1,0.8-0.1,1.2c-0.1,1-0.2,1.9-0.3,2.8c0,0,0,0,0,0
	c-15.6,97.9-31.5,135.9-41.1,162.9c-1.3,4.7-18.1,45.2-30.5,56.6c-11.4,10.6-26.1,25-57,23.4c-4.5-0.2-9.1-0.3-13.5-1.4
	c-14.7-3.6-25.2-3.2-40.5-4.2c-2.4-0.2-4.8-0.9-6.9-2.3c-3.7-2.4-7.3-5-24.8-7.6c-18.1-3.5-35.7-36.1-39.5-47.2
	c-4.2-9.3-12.3-48.8-14.8-61.3c-0.2-1.3-0.6-2.6-1-3.8c0,0,0,0,0-0.1c-0.2-0.5-0.3-1-0.4-1.5v0c-0.2-1.5-0.2-3.1-1-4.5c0,0,0,0,0,0"
	/>
<g>
	<path class="st1" d="M598.8,1174c-10.2,34.6,34.2,104.5,52.3,119.7c-0.1-3,0-7.1,0.2-11.8c0-0.2,0-0.4,0-0.6
		c0.1-3.3,0.3-7,0.5-10.8c-0.5,23.8,0.3,46.9,2.8,67.5c0.5,4.4,1.1,8.6,1.8,12.7c-4.3-7.4-9.7-14.8-14.4-22.2
		c-8.4-13-17.1-25.9-24.8-38.7c-2.3-3.8-4.7-7.5-7.3-11c-0.7-1-1.4-2-2.2-3.1c-14.7-20.5-38.8-59-30.2-95.5c0.5-2.1,1.1-4.1,1.8-6.2
		c4-11.7,11.7-23.1,24.4-33.5c5-3.9,14.3-8.4,27.3-7.2c8.2,0.8,17.8,3.8,28.7,10.6c1.7,1.1,3.5,2.3,5.3,3.6c-3.1,15.7-5.8,33-7.9,51
		c0.3-19.2-11-30.3-14.7-34.7C638,1159,609,1139.3,598.8,1174z"/>
	<path class="st1" d="M656.3,1205.5c0.4-2.4,0.6-4.8,0.6-7c-2.8,23.4-4.6,48-5.1,71.9C653.2,1244.8,656.1,1210.7,656.3,1205.5z"/>
</g>
<polyline class="st21" points="779.8,1385.2 781.5,1379.1 799.2,1359.8 826.7,1379.8 822.8,1384.6 "/>
<g>
	<path d="M798.8,1365.5c-0.1-0.2-0.2-0.5-0.3-0.7l0.1-0.7l0.1-1.4l0.1-1.4l0.1-0.7c0.1-0.2,0.3-0.5,0.4-0.7c0.1,0.2,0.2,0.5,0.3,0.7
		l-0.1,0.7l-0.1,1.4l-0.1,1.4l0,0.7C799.1,1365,799,1365.2,798.8,1365.5z"/>
</g>
<path class="st21" d="M826.7,1379.8c0.3-0.4-3.6,5.2-3.6,5.2l-14.6,17.4l-2.6,1"/>
<path class="st15" d="M845.4,1386.9c-0.6-3.2,0.7-6.6-1.2-9.1"/>
<g>
	<path class="st16" d="M546.7,528.1c1.1,2.8,2.4,5.5,4.2,7.8c1.8,2.3,4.1,4.1,6.3,6.2c0.6,0.5,1.1,1.1,1.6,1.6
		c0.5,0.5,1.1,1.1,1.6,1.7c1,1.2,1.9,2.5,2.5,3.9c1.4,2.8,2.1,5.8,2.4,8.8c-1.1-2.9-2.2-5.6-3.7-8.1c-1.6-2.5-3.5-4.6-5.7-6.6
		c-1.1-1-2.2-2-3.3-3.1c-0.5-0.6-1-1.1-1.5-1.7c-0.5-0.6-1-1.2-1.4-1.9C548,534.1,547,531.1,546.7,528.1z"/>
</g>
<g>
	<path class="st16" d="M561.3,543.1c5.6,7.8,10,16.5,13.9,25.2c4,8.7,7.6,17.6,11.5,26.3c3.9,8.7,8.2,17.3,13.7,25
		c5.5,7.8,12.2,14.7,20.5,19.6c-4.3-2.1-8.3-4.9-12-8c-3.6-3.2-6.9-6.8-9.8-10.7c-5.8-7.7-10.3-16.4-14.3-25.1
		c-4-8.8-7.5-17.7-11.1-26.5C570.1,560.1,566.2,551.4,561.3,543.1z"/>
</g>
<g>
	<path class="st16" d="M570.1,549.4c3.3,2.3,6,5.5,8,9.1c2,3.6,3.4,7.4,4.8,11.2c0.6,1.9,1.3,3.8,2,5.6c0.7,1.9,1.5,3.7,2.4,5.4
		c0.9,1.7,2,3.3,3.4,4.7c1.4,1.4,3,2.6,4.8,3.5c-2-0.5-3.8-1.5-5.4-2.7c-1.6-1.3-3-2.9-4.1-4.6c-2.3-3.5-3.6-7.4-4.9-11.2
		c-1.3-3.8-2.6-7.6-4.3-11.1C575.1,555.6,572.9,552.3,570.1,549.4z"/>
</g>
<g>
	<path class="st16" d="M568.3,547.5c1.4,1.7,2.8,3.4,4.1,5.2c1.2,1.8,2.6,3.6,3.6,5.5c1.2,1.9,2.1,3.9,3.1,5.9
		c0.9,2,1.6,4.2,2.3,6.3c1.3,4.3,2.2,8.5,4.8,11.8c2.6,3.4,6,6.2,9.3,9c-3.8-2.2-7.6-4.6-10.6-8.1c-1.5-1.7-2.7-3.7-3.5-5.9
		c-0.8-2.1-1.4-4.3-2-6.3c-1.2-4.2-2.9-8.1-4.8-12c-0.9-2-2-3.8-3.1-5.8C570.5,551.3,569.3,549.4,568.3,547.5z"/>
</g>
<g>
	<path class="st16" d="M567.8,549.6c2.7,3.4,5.3,6.9,7.3,10.7l0.8,1.4l0.7,1.5c0.5,1,1,2,1.4,3c0.9,2,1.6,4,2.3,6.1
		c0.7,2,1.3,4.1,2,6.1c0.3,1,0.8,2,1.1,2.9l0.7,1.4c0.1,0.2,0.2,0.5,0.4,0.7l0.4,0.6c1,1.8,2.6,3.3,4.1,4.7c0.8,0.6,1.7,1.3,2.6,1.9
		c0.9,0.6,1.8,1.2,2.7,1.8c-1-0.4-2-0.8-3-1.3c-1-0.5-1.9-1.1-2.9-1.6c-1.8-1.3-3.6-2.7-4.8-4.6c-0.7-0.9-1.2-1.9-1.8-2.8
		c-0.4-1-1-2-1.3-3c-0.8-2-1.4-4.1-2.2-6.1c-1.3-4.1-2.9-8-4.7-11.9C572,557.2,569.8,553.4,567.8,549.6z"/>
</g>
<g>
	<path class="st16" d="M568.3,552.7l1.6,2c0.5,0.7,0.9,1.5,1.4,2.2c0.5,0.7,0.9,1.5,1.3,2.3c0.4,0.8,0.8,1.5,1.2,2.3
		c1.5,3.1,2.9,6.3,4.3,9.5c2.7,6.4,5.4,12.7,8.4,18.9c2.9,6.2,6.2,12.3,10,18c3.8,5.7,8.1,11.1,13,16.1c-5.4-4.4-10.2-9.5-14.2-15.2
		c-1-1.4-2.1-2.8-3-4.3l-2.7-4.5l-2.5-4.6c-0.8-1.5-1.6-3.1-2.3-4.7c-3-6.3-5.6-12.7-8-19.2c-1.2-3.2-2.4-6.5-3.7-9.7
		C571.6,558.7,570.2,555.5,568.3,552.7z"/>
</g>
<g>
	<path class="st22" d="M806.7,533.6c-4.3,3.8-9.2,6.8-14.2,9.5c-5.1,2.7-10.3,5-15.4,7.6c-5.1,2.6-10.1,5.3-14.4,9
		c-2.1,1.8-3.9,4.1-6.2,5.9c-2.2,1.9-4.8,3.4-7.5,4.4c-2.7,1.1-5.6,1.6-8.4,2.1c-1.4,0.3-2.8,0.6-4.1,1c-1.3,0.4-2.6,1-3.9,1.6
		c-5.1,2.6-10,5.4-15,8.2c-5,2.8-10,5.6-15.1,8.2c-2.5,1.3-5.1,2.6-7.6,3.9c-2.6,1.2-5.2,2.5-7.9,3.4c2.7-1,5.2-2.3,7.8-3.6
		c2.5-1.3,5-2.7,7.5-4.1c5-2.8,9.9-5.6,14.9-8.5c5-2.9,9.9-5.7,15-8.3c1.3-0.7,2.6-1.3,4-1.7c1.4-0.5,2.8-0.8,4.2-1.1
		c2.8-0.6,5.6-1.1,8.2-2.1c2.6-1,5.1-2.5,7.2-4.3c0.6-0.4,1.1-0.9,1.6-1.4l0.8-0.7l0.7-0.8c1-1,2-2,3.1-3c2.2-1.9,4.5-3.6,7-5
		c1.2-0.8,2.5-1.4,3.8-2.1c1.3-0.6,2.6-1.3,3.8-1.9c5.2-2.5,10.4-4.8,15.5-7.4C797.3,540.1,802.2,537.2,806.7,533.6z"/>
</g>
<path class="st23" d="M724.2,1263.5c-0.3,0.3-0.6,0.5-1,0.6c-5.2,1.8-13.6,9.6-17.5,11.7c-1,0.5-2.2,0.5-3-0.3
	c-2.4-2.3,3.6-5.9,3.7-8.3c0-0.2,0-0.4-0.1-0.6c-1.1-2.6-0.2-5.7,0-6.4c0.3-0.8-2.3-2.8-1.8-2.9c10.8-3,11.7-19.6,13.7-24.3
	c1.9-4.7-1-24.3,0-28.5c1-4-7.2-11.3-11.9-11.2c-0.2,0-0.4,0-0.6,0c-26.2,5.2-21.2-3.4-26.1-0.6c-5,2.8-3,28.6-0.9,43.8
	c2,15.3,13.2,15,12.1,21.9c-3.3,14.5-6.5,0.1-9.8,3.5c-1.7,3.3-11.1,13.8-10.4,8c0.7-5.8,4.8-7,8.4-11.7c4.4-6.2-2.9-12.4-4-24.8
	c-0.3-3.6-1-7.2-1.8-10.8c-2-9.2-2.2-16.6,0-24.6c0-0.2,0.1-0.3,0.1-0.5c0.8-9.8,2.7-13.4,5.5-16.6c0.3-0.3,0.6-0.7,0.9-1
	c10.8-11.5,33.1-11.3,40.8,4.3c1.2,2.5,2.8,4.8,5,6.4c3.9,3,5.7,7.9,6.7,12c0.2,0.9,0.4,1.8,0.5,2.6c1,5.4,6.9,6.1,5,13.2
	c-0.1,0.2-0.1,0.4-0.1,0.6C737.4,1230.6,744.1,1243.4,724.2,1263.5z"/>
<path class="st24" d="M707.2,1193.4c1,0.2,13,2.8,11,12.7c-2,9.9,1.5,25.1-0.3,28.3c-1.8,3.2-1.8,24.8-17.2,23.3
	c-15.4-1.5-25.5-18.5-19.5-29.2C687.1,1217.9,707.2,1193.4,707.2,1193.4z"/>
<path class="st25" d="M758.7,1308.7C758.7,1308.7,758.7,1308.7,758.7,1308.7c0,0,0,0.1,0.1,0.2c0.2,0.4,0.7,1.2,0.3,1.6
	c-3,3.1-8.7,20.2-14.9,28c-5.8,7.3-13.3,3.7-16.3,1c-0.4-0.3-0.9-0.4-1.3-0.2c-1.4,0.6-3.6,1-5.4,0.5c-0.8-0.2-1.5,0.3-1.7,1.1
	c-0.8,4.4,2.3,14.5,1.6,30.1c-0.5,7.3-4.5,0.9-6.7,2.1c0,0-6.3,3-11.8,1.3c-11-4.7-6.7-9.8-7.5-12.4c-2.9-8.3-3-23-2-24.6
	c1-1.6,1.7-22.4,0.5-24.3c-5.5-10.6-1.9-14.6-2.3-19.4c-0.4-4.8,0.5-12,2.9-14.3c2.5-2.4,0.8-1.9,2-4.1c5.4-4.4,5.7,0,8.8-4.5
	c1-1.5,3.1-1.6,4.4-0.4c0.9,0.8,1.5,1.4,1.9,1.5c2.4,0.7,0.7,3.5,2.3,4.3c14.1,5.9,13.8,13.4,16.1,15.4c5.4,4.6,3.5,12,3,16.7
	c-0.1,1.2-0.2,2.3,0,3c6.6-9.4,10.7-11.3,12-11.3c0.7,0,1.5-0.7,2.3-1.6c0.6-0.7,1.2-1.5,1.9-2.2c1-1.1,1.3-0.2,1.5,0.5c0,0,0,0,0,0
	c0.1,0.2,0.1,0.4,0.2,0.4c0.9-2.1,1.9-0.3,2.1-0.8c1.9-3.8,7-4.2,7.8-3.5C766.5,1300.6,760.8,1307.2,758.7,1308.7z"/>
<g>
	<path class="st26" d="M732.5,1312c-0.5,3.5-1.3,7-2.2,10.4c-1,3.4-2,6.8-3.4,10.1c-0.7,1.6-1.4,3.3-2.7,4.7
		c-0.3,0.3-0.8,0.7-1.4,0.8c-0.7,0-1.2-0.5-1.4-0.9c-0.5-0.9-0.7-1.7-1.1-2.5c-1.4-3.2-3.2-6.3-4.4-9.7c-1.2-3.4-1.8-7-1.9-10.5
		c-0.1-1.8,0.1-3.6-0.1-5.3c-0.2-1.7-0.7-3.3-1.5-4.9c-0.8-1.6-1.8-3-2.6-4.6c-0.9-1.6-1.5-3.3-1.8-5c-0.7-3.5-0.1-7.1,0.7-10.6
		c-0.6,3.5-1,7-0.2,10.5c0.4,1.7,1,3.3,1.9,4.8c0.9,1.5,1.9,3,2.7,4.6c0.9,1.6,1.4,3.3,1.7,5.2c0.2,1.8,0,3.6,0.1,5.3
		c0.1,3.5,0.7,7,1.9,10.2c1.1,3.3,2.9,6.4,4.3,9.6c0.4,0.8,0.7,1.7,1,2.4c0.2,0.3,0.4,0.5,0.6,0.5c0.2,0,0.6-0.2,0.8-0.5
		c1.1-1.2,1.9-2.8,2.6-4.4c1.5-3.2,2.6-6.5,3.7-9.9C730.9,1318.9,731.8,1315.5,732.5,1312z"/>
</g>
<g>
	<path d="M694.3,1357.9c0.1,7,0.6,14.1,1,21.1l1.2,21l0.7,10.5c0.2,3.5,0.5,7,0.7,10.5c0.2,1.7,0.3,3.5,0.6,5.2
		c0.3,1.6,1.1,3.2,1.6,4.9c0.6,1.7,0.5,3.7-0.1,5.4c-0.6,1.7-1.5,3.2-2.5,4.7c0.8-1.5,1.6-3.1,2-4.8c0.4-1.7,0.3-3.4-0.3-5
		c-0.6-1.6-1.5-3.1-2-5c-0.4-1.8-0.6-3.5-0.9-5.3c-0.9-7-1.4-14-1.8-21.1c-0.4-7-0.7-14.1-0.8-21.1
		C693.6,1372,693.7,1364.9,694.3,1357.9z"/>
</g>
<path class="st15" d="M689.1,1253.5"/>
<path class="st15" d="M687.1,1251.6c10.2,9.6,20.8,6.2,23.6,1.9"/>
<linearGradient id="SVGID_3_" gradientUnits="userSpaceOnUse" x1="676.421" y1="1222.8406" x2="714.8359" y2="1222.8406">
	<stop  offset="0.3169" style="stop-color:#D6AF96"/>
	<stop  offset="0.5009" style="stop-color:#DCB69F"/>
	<stop  offset="0.7942" style="stop-color:#EDC9B6"/>
	<stop  offset="1" style="stop-color:#FCDACA"/>
</linearGradient>
<path class="st27" d="M676.6,1209.4c0,0,0.2,34.3,13.8,43c16.1,5.8,18.9-16.2,23.9-34.1c0.6-2.3,0.7-4.8-0.1-7.1
	c-1.5-4.4-0.9-14.1-8.4-17.8c-2.6,0.9-18.9,3.6-22.9-0.6C681.7,1191.6,675.1,1191.3,676.6,1209.4z"/>
<path class="st28" d="M689.3,1200.6c0.2,1.4,0.1,3.1-4,2.3c-1-0.2-2,0-2.9,0.4c-1.1,0.5-2.3,0.9-2.2-0.8c0.4-2.3,1.9-8.3,8.3-6.4
	c0.7,0.2,0.9,1.3,0.8,2.4C689.2,1199.3,689.2,1200,689.3,1200.6z"/>
<path d="M685.5,1205c-0.6,4,2.9,7.2,3.8,3.7S686.3,1201.2,685.5,1205z"/>
<path class="st28" d="M707.9,1256c13.9-8.6,10.5-22.8,13.5-33.7c3.1-10.9,1.3-10.4-0.2-20.9c3,6,4.4,13,1.8,21.6
	c-2.6,8.6-0.8,16.9-3.4,21.8C717.2,1249.4,713.7,1254.2,707.9,1256z"/>
<path class="st28" d="M707,1202.2c-4-0.7-4.8,0.8-4.1,3.3s-3.6,4.2-0.9,4.8c2.6,0.6,9.7,4.9,9.7,2.7
	C711.7,1210.4,711,1202.9,707,1202.2z"/>
<path d="M705.9,1218.2c-2.1,0.3-2.8-6.2-0.5-6.7C707.8,1211.1,708,1217.9,705.9,1218.2z"/>
<g>
	<path class="st26" d="M708.3,1286.1c-0.3,1.3-0.7,2.6-0.8,4c-0.2,1.3-0.1,2.7,0.1,4c0.3,1.3,0.8,2.5,1.5,3.7
		c0.7,1.1,1.5,2.2,2.3,3.3l0,0l0,0c0.5,0.9,0.7,1.8,0.9,2.8c0.1,0.9,0.2,1.9,0.2,2.8c0,1.9-0.1,3.7-0.2,5.6c-0.2,3.7-0.7,7.3-0.6,11
		c0,1.8,0.1,3.7,0.4,5.4c0.3,1.8,0.8,3.6,1.6,5.2c0.8,1.6,2.1,3,3.6,3.9c0.7,0.5,1.6,0.8,2.5,0.7c0.9-0.1,1.8-0.4,2.5-0.9
		c-0.7,0.6-1.6,1-2.5,1.1c-0.9,0.1-1.9,0-2.7-0.6c-1.6-0.9-3-2.3-4-4c-1.9-3.3-2.3-7.2-2.3-10.9c0-3.7,0.3-7.4,0.6-11.1
		c0.2-1.8,0.3-3.7,0.3-5.5c0-1.8-0.1-3.7-0.9-5.2l0,0c-0.8-1.1-1.6-2.2-2.3-3.4c-0.7-1.2-1.2-2.5-1.5-3.9c-0.2-1.4-0.2-2.8,0.1-4.1
		C707.5,1288.7,707.9,1287.4,708.3,1286.1z"/>
</g>
<path class="st15" d="M482.8,1407.2c25.9,15.4,42.9,18.7,42.9,18.7"/>
<path class="st15" d="M478.8,1409.6c13.6,9.9,49.6,23.1,55.1,21.6"/>
<path class="st15" d="M520.7,1402.8c-2.9-0.8-3.2,3.7-2.3,6.2c0.9,2.5-2.1-1.3-1.2,4c0.9,5.3,2.2,3.7,2.7,5.6
	c1.1,4.6,4.9-0.3,5.2,0.4c0.3,0.7,1.5,1.9,0.9,3.6s-1.6,7.2,4.2,6.6c5.8-0.6,5.8,1.1,3.7,2c-2.1,0.9-0.7,3.2-5.3,2.7
	c-4.6-0.5,0.3,8.2,4.8,5.5c4.5-2.7,3.2,1.7,6.4,1.2c2.4-0.4-3,15,13.5,14.7"/>
<g>
	<path class="st16" d="M509.6,1368l2.8-1c0.9-0.4,1.9-0.7,2.8-1.2c1.8-0.8,3.6-1.8,5.3-2.8c1.7-1.1,3.2-2.3,4.8-3.6
		c0.8-0.6,1.7-1.2,2.7-1.7c1-0.5,2-0.7,3-0.8c0,0,0.1,0,0.1,0c0.8,0.2,1.6,0.4,2.3,0.4c0.8,0.1,1.5-0.1,2.1-0.5
		c0.3-0.2,0.5-0.5,0.8-0.8c0.3-0.3,0.6-0.5,0.9-0.8c0.7-0.4,1.4-0.8,2.2-0.9c-0.8,0.2-1.5,0.6-2.1,1c-0.3,0.2-0.6,0.5-0.9,0.8
		c-0.2,0.3-0.5,0.6-0.8,0.9c-0.6,0.6-1.5,0.8-2.3,0.8c-0.8,0-1.6-0.2-2.4-0.3l0.1,0c-1,0.2-1.9,0.5-2.8,0.9c-0.9,0.5-1.7,1-2.4,1.7
		c-1.5,1.3-3,2.8-4.7,4c-1.7,1.2-3.4,2.3-5.3,3.2c-0.9,0.5-1.8,0.9-2.8,1.4l-2.8,1.2c-0.5,0.2-1.1,0-1.3-0.5
		C508.8,1368.9,509,1368.3,509.6,1368C509.6,1368.1,509.6,1368,509.6,1368L509.6,1368z"/>
</g>
<path class="st17" d="M673.3,1555.7c6.8-1.6,21.1-24.3,14.8-40.1c-5.6-15.6-12.5-32.9-24.7-41.4c-2.9-2.3-4-12.2-8.1-16
	c-4.1-3.8-2.3-15.4-11.4-22c-3.2-2-2.4-16.3-8.3-20.9c0,0-15.1-15.3-56.1-10.8"/>
<g>
	<path class="st16" d="M667,1393.7c-1.2,1-2.5,2-4.2,2.5c-1.7,0.5-3.4,0.2-4.8,0.1c-1.4-0.1-2.8,0-4.1,0.4c-1.3,0.4-2.6,1.1-4,1.7
		c-2.8,1.2-5.9,1.8-9,1.8c-3.1,0-6.1-0.6-9-1.5c-5.8-1.9-11-4.9-16.7-6.4c-2.8-0.8-5.8-1.2-8.7-0.9c-2.9,0.3-5.8,1.1-8.4,2.5l0,0
		l0,0l-3.4,1.2c-1.1,0.3-2.3,0.7-3.4,1l-1.8,0.4c-0.6,0.1-1.2,0.1-1.8,0.2c-1.2,0-2.4,0-3.6-0.5c-0.6-0.2-1.1-0.5-1.6-0.7
		c-0.3-0.1-0.5-0.2-0.8-0.3c-0.3,0-0.6-0.1-0.9-0.1c-0.6,0-1.2,0-1.7,0.1l-0.9,0.2l-0.8,0.2c-1.1,0.3-2.2,0.8-3.3,1.2
		c-1.1,0.5-2.2,0.9-3.3,1.4c1.1-0.5,2.1-1,3.2-1.5c1.1-0.4,2.2-0.9,3.3-1.2l0.8-0.3l0.9-0.2c0.6-0.2,1.2-0.1,1.8-0.2
		c0.3,0,0.6,0.1,0.9,0.1c0.3,0.1,0.6,0.2,0.9,0.3c0.6,0.2,1.1,0.5,1.6,0.7c1.1,0.4,2.3,0.4,3.4,0.4c0.6-0.1,1.2-0.1,1.7-0.2l1.7-0.4
		c1.1-0.3,2.3-0.7,3.4-1l3.3-1.2l0,0c2.7-1.4,5.6-2.4,8.6-2.7c3-0.4,6.1,0,9,0.8c5.9,1.5,11.2,4.4,16.8,6.1c2.8,0.8,5.7,1.4,8.6,1.3
		c2.9-0.1,5.7-0.7,8.4-1.9c1.3-0.5,2.7-1.3,4.2-1.8c1.5-0.5,3.2-0.7,4.7-0.6c1.6,0.1,2.9,0.2,4.1-0.2c1.2-0.4,2.3-1.2,3.4-2.1l0,0
		c0.4-0.4,1-0.3,1.4,0.1C667.4,1392.7,667.4,1393.4,667,1393.7C667,1393.7,667,1393.7,667,1393.7z"/>
</g>
<path class="st17" d="M688,1449.1c7,21,20.9,22.3,20,36.4c2.9,15.3,43.9,40,40.2,74.1c-0.5,7.3-0.9,12.8-6,16.3"/>
<path class="st17" d="M740.9,1476.6c-0.1,5.6,5.7,3.2,6.2,14.5c1.5,8.7,37.1,53.7,20.4,71.4c-11.2,11.1-24.3,12.8-24.3,12.8"/>
<path class="st17" d="M840.1,1486.3c-15.1-6.5-31.7-2.9-44.7,6.2c5.8,16.5-40,58.8-3.2,78.5"/>
<path class="st17" d="M920.1,1515.1c6.7-14.7,10.4-19.4,15.5-21.2c5.1-1.8,21.7-5.4,17.4-35.4c-6.3-31.9-35.7-36.4-45.3-23.8
	c-8.3,11-6.8-22.7-52.3,30.9c-43,58.2-57,69.7-36,100.5"/>
<path class="st17" d="M905.8,1437.8c-18.2,19.7-40.5,47.4-46.3,70.9c-1.8,11.3,9.3,22.2,5.6,38.4"/>
<g>
	<path class="st16" d="M940,1437.8c-1.6-2.9-3-5.9-4.2-8.9c-1.2-3.1-2.1-6.2-2.9-9.4c-1.6-6.3-2.5-12.8-3.5-19.2
		c-0.3-1.6-0.6-3.2-0.9-4.8c-0.4-1.5-0.9-3-1.7-4.4c-0.4-0.7-0.8-1.4-1.3-2c-0.5-0.6-1-1.3-1.4-2c-0.9-1.4-1.6-2.9-2.4-4.3
		c-3.1-5.7-7.1-10.8-11.5-15.6c4.5,4.7,8.7,9.7,11.9,15.4c0.8,1.4,1.6,2.8,2.5,4.2c0.4,0.7,0.9,1.3,1.5,1.9c0.5,0.6,1,1.3,1.4,2
		c0.9,1.4,1.5,3,1.9,4.6c0.4,1.6,0.7,3.2,1,4.8c1.2,6.4,2.3,12.8,4,19c0.9,3.1,1.9,6.2,3.1,9.1c1.2,3,2.7,5.8,4.3,8.6l0,0
		c0.3,0.5,0.1,1.1-0.4,1.4C940.9,1438.4,940.3,1438.3,940,1437.8C940,1437.8,940,1437.8,940,1437.8z"/>
</g>
<g>
	<path class="st16" d="M926.3,1391.3c0.8-6.2,3.2-12,5.9-17.5l4.2-8.1c1.3-2.7,2.6-5.5,2.9-8.6c-0.1,3.1-1.3,6-2.4,8.8l-3.7,8.4
		c-2.4,5.6-4.4,11.3-4.8,17.3l0,0c0,0.6-0.5,1-1.1,0.9C926.7,1392.4,926.3,1391.9,926.3,1391.3
		C926.3,1391.3,926.3,1391.3,926.3,1391.3z"/>
</g>
<g>
	<path class="st16" d="M919.6,1380.7c-0.4-3.1-0.7-6.3-0.6-9.5c0.1-3.2,0.8-6.3,1.1-9.4c0.3-3.1,0.1-6.2-0.3-9.3
		c-0.4-3.1-1-6.2-1.6-9.3c0.8,3,1.6,6.1,2.1,9.2c0.6,3.1,1,6.3,0.8,9.4c-0.1,3.2-0.7,6.3-0.6,9.4c0.1,3.1,0.5,6.1,1,9.2l0,0
		c0.1,0.5-0.3,1.1-0.8,1.2C920.2,1381.7,919.7,1381.3,919.6,1380.7C919.6,1380.8,919.6,1380.7,919.6,1380.7z"/>
</g>
<path class="st15" d="M929.5,1403.1c-6.8-5.2-16-1.1-27.8-10.1"/>
<path class="st15" d="M931.9,1416c-25.7-3.9-34.1,8.1-52.4,5.8"/>
<path class="st17" d="M953.7,1470.1c7.5,2.4,28,26.2,44.6,22"/>
<g>
	<path d="M665.8,321.3c3.6,3.6,7.8,6.7,12.2,9.4c4.4,2.7,9,5,13.8,7c4.8,2,9.6,3.7,14.6,5.2c1.2,0.4,2.5,0.7,3.7,1
		c1.2,0.3,2.5,0.6,3.8,0.9c2.5,0.5,5.1,1,7.7,1.1c-2.6,0-5.2-0.5-7.7-1c-1.3-0.3-2.5-0.5-3.8-0.8c-1.3-0.3-2.5-0.6-3.8-1
		c-5-1.4-9.9-3-14.7-4.9c-4.8-1.9-9.5-4.2-14-6.8c-4.5-2.6-8.8-5.7-12.5-9.3L665.8,321.3z"/>
</g>
<g>
	<path d="M614,296.6c3.6,1.9,6.9,4.3,9.9,7.1c3,2.8,5.5,6,8,9.2c1.3,1.6,2.6,3.1,4.1,4.4l1.2,0.9l1.3,0.8c0.4,0.2,0.9,0.4,1.3,0.6
		c0.5,0.2,1,0.4,1.4,0.6c1.9,0.9,3.5,2.2,5.1,3.4l4.8,3.8c1.6,1.3,3.2,2.5,4.8,3.7c0.8,0.6,1.6,1.2,2.4,1.9l2.4,1.9
		c3.2,2.5,6.5,4.8,9.8,7.1c3.3,2.3,6.7,4.6,10.1,6.7c3.4,2.2,6.9,4.2,10.5,6.2c-7.3-3.5-14.3-7.8-21.1-12.3c-3.4-2.2-6.7-4.6-10-7
		l-2.4-1.9c-0.8-0.6-1.6-1.3-2.4-1.8c-1.6-1.2-3.3-2.4-4.9-3.7l-4.7-3.8c-1.6-1.2-3.2-2.5-5-3.4c-0.4-0.2-0.9-0.4-1.3-0.6
		c-0.5-0.2-1-0.4-1.4-0.6l-1.3-0.8l-1.2-1c-1.6-1.4-2.9-3-4.1-4.6c-2.5-3.2-4.9-6.5-7.8-9.3C620.8,301.2,617.5,298.7,614,296.6z"/>
</g>
<g>
	<path d="M617.4,320.8c3.6,0.6,7,2.1,9.9,4.3c2.9,2.2,5.3,5,7.4,8c4.1,6,7,12.7,10.8,18.8c1.8,3.1,3.9,6.1,6.2,8.7
		c2.4,2.7,5.1,5.1,8.1,7c3,2,6.3,3.5,9.7,4.6c3.4,1.1,7,1.7,10.6,2.2c-3.6-0.3-7.2-0.8-10.7-1.7c-3.5-1-6.9-2.5-10-4.4
		c-3.1-1.9-5.9-4.3-8.3-7.1c-2.4-2.7-4.5-5.7-6.4-8.8c-3.7-6.2-6.7-12.9-10.6-18.9c-1.9-3-4.3-5.8-7.1-8
		C624.2,323.2,620.9,321.6,617.4,320.8z"/>
</g>
<path d="M677.9,316.8c5.9,0.5,8,9.8,11.7,11.6c19.9,13.3,58.3,9.2,62.7,3.5c0,0-32,8.7-60.6-4.5c-0.1,0-0.1-0.1-0.1-0.1
	c-0.7-0.5-1.3-1-2-1.4c-0.1-0.1-0.3-0.1-0.4-0.1C684.9,325.5,682.9,317,677.9,316.8z"/>
<path class="st29" d="M662.7,328.5"/>
<path class="st29" d="M1173.5,928.3c-6.1-32-8-125.5-75.1-143.8c-70.6-16-74.7-8.7-122-17.1c-8.5-1.7-27.8-8.3-36.5-9.9
	c-0.4-0.2,0.9-0.7-2.5-0.8c-13.4-5-12-9.8-19.2-10.9c-1.4-0.1-0.6-3-4.4-1.5c-2.9,0.6-9-3.8-11.6-5.8c-4-4.2-4.7-13.4-12.1-14.8
	c-6.4-1.7-17.6-11.4-19.4-12c-4.8-33.3-2-38.9-6.9-72.4c55.4-71,11.9-102.7,10.7-120.1c-1.7-10.8-6.3-20.8-7.7-27.4
	c1.5-1.3,24.3,4,24.5-27.1c0.4-25.4-9.3-25.1-14.7-41.5c-3.3-9.4-3-16.1-5.7-22c-0.5-1.2-0.8-2.5-0.6-3.8
	c5.7-41.8-24.1-66.5-32.6-98.3c-0.2-0.6,0.5-1.2,1.1-0.9c0,0,0,0,0,0c0.7,0.3,1.4-0.5,1-1.1c-15.7-23.8-19.3-16.9-28.2-29.4
	c-46.3-62.8-95.3-71.2-111.3-75.9c0,0-0.1,0-0.1,0c-55.2-27.6-126.7,19.4-126.2,29c0,0.3-0.1,0.5-0.3,0.7
	c-26.3,18.7-12.5,26.8-17.4,27.5c-52.7,2.4-61.7,46.3-60.3,52.5c0.1,0.3-0.1,0.7-0.4,0.8c-28,15.5-17.7,18.8-21.3,19.5
	c-16.7,1.7-11.3,6.8-2.9,10c8,3,4.3,9.5,12.6,9.8c0.6,0,0.9,0.6,0.7,1.1c-11.6,23.6-2.4,41.6-6,49.2c-0.1,0.2-0.2,0.3-0.4,0.4
	c-17.1,6.4-19,28.3,6.7,20.8c0.4-0.1,0.8,0.1,0.9,0.5c8.4,28.2,38.4,79.2,48.2,90.6c0.1,0.2,0.2,0.3,0.2,0.5c-0.3,6.3,2,5.3,4.4,5.9
	c0.1,0,0.2,0.1,0.3,0.2c2.5,2.4,5.2,7.9,7.4,13.4c0.9,2.2,1.8,4.5,2.5,6.6c2.5,6.8,5.4,10.3,9.4,10.9c0.1,0,0.2,0.2,0,0.3
	c-9,3.5-7.3,12,0.5,26.9c5.9,11.2,13,25.1,16.7,32.9c1.1,2.5,2.1,5,2.6,7.7c2.7,15,29,30.4,38.1,8.4c5.2,8.6,9.9,14.2,12.7,17.3
	c1.9,2.1,3.4,4.6,4.3,7.4c5.8,17.8,13,55.5,10,66.9c-3.2,12.6-8.3,1.8-9,16.5c-11.4,6.9-34.8,2.6-40.6,13.4
	c-8,0.4-19.9,1.8-23.3,2.6c-3.5,0-102.6,0.2-135.3,10.9c-40.2,14-57.3,41.1-67.3,70.1c-10.1,29.5-13.6,59-21.3,82.5
	c-2.2,8.7-4.2,15.4-6.1,20.6c-9,24.7-14.8,16.4-12.8,42.3c2.6,29.9-16,139.4-17.2,242.2v0.1c-6.3,7.3,4.6,10.5-1.4,50
	c-1,7.3-12.9,9.6-4.2,28.3c1.2,2.4,1.5,15.8,0.9,19c-0.2,1.7-1,3.1-2.1,4.9c-3,4.9-7.9,12.5-4.8,36.2c-2.6,16.3,5.8,34,15.6,42.4
	c6.7,6.9,27.5,63.7,90.3,73.2c0,0.1,0,0.1-0.1,0.2c-2.7,8.7-5.4,17.3-8,25.8c-23.9,78.4-40.1,141.5-50.4,157.5
	c-11.4,17.7-19.7,31.7-25.4,55.5c-12.8,19.5-3,25.4-10.2,46.8c4.9-0.2,3.9-4.2,5.7-2.9c3.4,3.7-1,5.2,5.3,18.9
	c-4.1,17.2-13.7,45.3-19.9,81.4c-7.2,41.5-10.1,93.6,4.7,152.2c16.1,0,734.5,0,734.5,0c-3.4-27.1-10.3-70-22.9-129.1
	c-7.2-42.9-10.1-78.2-11.4-85.7c0.2-2.3,6.6,1.3,4.8-13.5c-0.2-2,5.1-3.7,4.6-1.6c-0.5,2,3.9,3.5,3.8-0.9
	c1.3-59.3-7.9-56.8-10.6-66.5c-3.5-19.8,5.2-89.3-4.4-154.6c-1.1-8.9-1.3-52.1,0.7-56.5c13.1,0.3,26.2,0.1,54.8-11.6
	c12.9-4.8,18.7-2.4,38.1-15.6c23-9.3,83.9-42.9,65.1-111.2c14.9-24.3-2-33.9-3.1-39.3c-0.2-6.3-0.2-11.9,1.4-8.9
	c1.6,3,4.9-2.5,3.6-9c-1.3-6.5,4-9.3,3.2-23c-0.7-13.7-2.8-9.9,1-23.1c3.8-13.2-0.6-11.6,3-21.4c3.7-9.8-2.2-6.4,1.6-14.5
	c1.7-6.2,0.3-14.7,1.7-28.5c1.8-36.6-0.5-205.1,1.9-218.8C1180.4,951.6,1176.8,950.7,1173.5,928.3z M598.7,328.1
	c-2.3,6.5-8.9,12.1-11.7,15.5c-2.8,3.4-5.3,13.5-14.9,24c-0.6,0.7-1.7-0.1-1.3-0.9c5.5-10.1,8.6-25.1,17.1-31.2c0,0,5.9-4.1,9.4-8.2
	C597.9,326.6,599,327.3,598.7,328.1z"/>
<path class="st29" d="M579.8,367.6C579.8,367.6,579.8,367.6,579.8,367.6c-2.6,2.8-5.1,5.3-7.5,7.8c0,0,0,0.1-0.1,0.1
	c-1.3,1.7-2.5,3.5-3.6,5.3c-4.5,7.4-6.7,16-6.6,24.7c0.1,19.7-3.5,46.2-6.3,59.8c-0.2,0.9,1.1,1.3,1.5,0.4
	c8.7-21.7,5.7-61.9,9.2-74.8c1.5-5.6,11.9-17.3,21.2-29.4c0.6-0.8-0.5-1.7-1.2-1C584.2,363.1,582,365.4,579.8,367.6
	C579.8,367.6,579.8,367.6,579.8,367.6z"/>
<path class="st29" d="M579.8,367.6c13.8-15.2,21.7-24.5,23.2-33.3c-3.8,8.5-9,15.5-14.4,21.9C585.8,360.1,582.7,363.9,579.8,367.6
	C579.8,367.6,579.8,367.6,579.8,367.6z"/>
<path class="st18" d="M856.1,409.7c4.2,5.3,8,12.5,11.5,15.8c2.4,2.2,4.5,4.8,6,7.7c3.5,6.8,4.6,13.5,2.9,15.5
	c-2.2,2.7-4,8.8,0.6,7.8c1.4-0.4,2.8,3.3,3.3,1.1c0.5-2.3,0.5-18.9-5.3-26c-5.7-7.1-7.1-24.8-9.4-26.2c-2.3-1.4-3.7-10.5-6.7-9
	c0,0-0.1,0-0.1,0C854.1,399,852.6,405.4,856.1,409.7z"/>
<path class="st18" d="M858.5,435.3c3.1,4.5,2.5,8.8,3.4,10.1s1.6,5,1,9.1c1,1.4,8-1.3,7-9.5C868.9,436.7,861.8,435.2,858.5,435.3z"
	/>
<g>
	<path class="st16" d="M858.5,445c-0.8-2.4-1.7-4.6-2.8-6.8c-1.1-2.2-2.3-4.3-3.5-6.4c-1.2-2.1-2.4-4.3-3.5-6.5
		c-1.1-2.2-2-4.5-2.6-7l4,6.2c1.3,2.1,2.6,4.1,3.9,6.3c1.2,2.2,2.4,4.4,3.2,6.8C858,440,858.6,442.5,858.5,445z"/>
</g>
<g>
	<path class="st16" d="M842.6,419.8c1.5,2,3,4,4.4,6.1c1.4,2.1,2.8,4.2,4.1,6.3c1.3,2.2,2.5,4.3,3.6,6.6c1,2.3,2.1,4.7,2.4,7.2
		c-1.1-2.3-2.4-4.3-3.7-6.5c-1.3-2.1-2.6-4.2-3.9-6.4c-1.3-2.1-2.5-4.3-3.7-6.5C844.5,424.4,843.4,422.2,842.6,419.8z"/>
</g>
<g>
	<path class="st16" d="M847.7,417.6c0.7,0.6,0.9,1.1,1.2,1.6c0.3,0.5,0.5,1.1,0.7,1.6c0.4,1.1,0.7,2.1,1,3.2c0.6,2.1,1,4.3,1.5,6.4
		c0.8,4.3,1.5,8.6,2.1,12.9c-0.9-4.3-1.9-8.5-3.1-12.7c-0.6-2.1-1.2-4.2-1.9-6.2c-0.4-1-0.7-2-1.2-3c-0.2-0.5-0.5-0.9-0.7-1.4
		c-0.2-0.4-0.6-0.8-0.8-0.9c-0.5-0.3-0.7-0.9-0.4-1.4c0.3-0.5,0.9-0.7,1.4-0.4C847.5,417.5,847.6,417.5,847.7,417.6L847.7,417.6z"/>
</g>
<g>
	<path class="st16" d="M848.6,415.9c1.6,2.1,2.4,4.3,3.1,6.5c0.7,2.2,1.2,4.5,1.7,6.8c0.9,4.5,1.6,9.1,2.4,13.6
		c-1.1-4.5-2.1-9-3.4-13.4c-0.6-2.2-1.3-4.4-2.1-6.5c-0.8-2.1-1.8-4.2-3.1-5.7l0,0c-0.4-0.4-0.3-1,0.1-1.4S848.2,415.4,848.6,415.9
		C848.6,415.9,848.6,415.9,848.6,415.9z"/>
</g>
<path class="st30" d="M651.8,474.9c-5.3,2.3-8.5,5.5-11.9,8.4c0,0,0,0,0,0c-4.1,3.4-8.6,6.6-17.6,7.8c-3.4,0.5-7.4,0.7-12.3,0.5
	c1.9-3,3.7-5.6,5.6-7.8c7.9-9.8,15-13,21.3-13.2C642.5,470.4,647.5,472.7,651.8,474.9z"/>
<path class="st30" d="M732.6,426c0.4-10,12.9-20.4,36.3-19.1C768.9,413.4,760.7,424.4,732.6,426z"/>
<path d="M640.5,479.4c0,1.3-0.2,2.6-0.6,3.8c0,0,0,0,0,0c-4.1,3.4-8.6,6.6-17.6,7.8c-3.1-1.4-5.6-4.1-6.8-7.3
	c7.9-9.8,15-13,21.3-13.2C639.1,472.8,640.5,476,640.5,479.4z"/>
<path d="M657.4,319.6c12.8,14,36.7,29.9,60.1,26.2c-13.5,3.3-39.3,1-62.3-26.2C632.2,292.3,657.4,319.6,657.4,319.6z"/>
<path class="st15" d="M549.6,398.3c-12.2,33.1,2.8,70,0,86.4C557.9,474.4,540.5,434.7,549.6,398.3z"/>
<path d="M626.1,632.3c-1.1,15.4-0.4,21.2-6.2,25.6c7.6-4.3,8.4-5.2,8.4-5.2c-6.4,36.2-32.8,40.6-23,81.2c5.5,14.3,25.6,24.4,44.8,23
	c-9.2-1.1-15.4-2.9-15.4-2.9c7.9,0.9,15.4-0.2,15.4-0.2c-10.5-0.8-14.5-2.3-14.5-2.3c5.8,0.6,7.2-1.1,7.2-1.1
	c-3.5,0.5-29.9,2.9-35.1-20.9c-5.2-23.8,14.2-49.3,20.7-56.4c-7,18.3-13.7,22.9-10.2,70.3c1.9-13.5,3.8-38.6,6.3-42.7
	c7.9,19.8,13.1,29.9,32.8,46.4c-7.5-14.5-42.3-47.4-20-81.3c3.7,11.2,9.3,38.3,2.1,54.1c8.7,12.4,15.1,22.1,15.1,22.1
	S671.6,715.5,626.1,632.3z"/>
<path d="M624.3,651.3c-12.9,21.1-47.3,29.6-46.1,56.7c0.1,2.7,0.7,5.4,1.5,8c7.8,23.1,30.6,15.3,30.6,15.3
	c-10.3,1.2-28.3,2.2-29.2-26.3C579.2,684.3,622.3,664.5,624.3,651.3"/>
<path d="M628.9,663.5c-34.6,31.1-54.5,25.7-71.2,52.3c15.7-15.3,15.7-14,46.4-31.9C622.2,672.8,628.9,663.5,628.9,663.5z"/>
<path d="M628.9,649.4c-15.1,34-28.5,61.8,6.2,87.1C625.2,727.9,599.7,708.1,628.9,649.4z"/>
<path d="M640.5,666.3c10.8,31.7,15.8,51.3,12.2,73.1C659.9,720.6,655.3,706,640.5,666.3z"/>
<path d="M643.9,684.8c5.2,20.4-3.4,36.8-3.4,36.8c3,4.3,3.6,5.2,3.7,5.4C644.4,727.1,652.1,703.5,643.9,684.8z"/>
<g>
	<path class="st16" d="M503.8,1266.2c-4-8.6-7.1-17.6-9.9-26.6c-2.8-9.1-5.1-18.3-7.3-27.5c-4.2-18.5-7.5-37.2-10.3-56
		c-5.6-37.5-9.3-75.3-12.7-113l-2.4-28.3c-0.8-9.4-1.8-18.9-2.5-28.3c-1.4-18.9-2.8-37.8-5.3-56.6c-2.5-18.8-6.1-37.4-11.6-55.5
		c-5.4-18.1-12.8-35.7-22.5-52c10,16.1,17.7,33.6,23.5,51.7c5.7,18.1,9.5,36.8,12.2,55.6c2.7,18.8,4,37.7,5.6,56.6
		c0.7,9.4,1.7,18.8,2.6,28.3l2.5,28.3c3.2,37.8,6.9,75.5,12.3,113c2.7,18.8,5.8,37.4,9.7,56c2,9.3,4.2,18.5,6.8,27.6
		C497,1248.5,500,1257.5,503.8,1266.2z"/>
</g>
<path class="st15" d="M310.1,1210.6c23.3-3.7,42.1-14.3,96.6,5.7s53.7,8.5,90,31.5"/>
<path class="st17" d="M310.5,1237.5c21.6-17.9,87.5,1.6,128.6,5.3s46,15.1,62.6,23.4c-10.6,2.5-19.7-17.3-71.6-18.4s-54-9.9-86-6.3
	c11.9,1.2,10.4,0.9,2.7,2.1c-7.6,1.2-30.8,8.8-39.1,19.5C311.1,1248.2,308.7,1242.6,310.5,1237.5z"/>
<path class="st0" d="M310.1,1237.5c21.6-17.9,87.5,1.6,128.6,5.3s46,15.1,62.6,23.4c-10.6,2.5-19.7-17.3-71.6-18.4s-54-9.9-86-6.3
	c11.9,1.2,10.4,0.9,2.7,2.1c-7.6,1.2-30.8,8.8-39.1,19.5C310.6,1248.2,308.3,1242.6,310.1,1237.5z"/>
<g>
	<path class="st16" d="M297.2,1346.7c0.5-3.3,1.5-6.6,2.7-9.7c1.2-3.1,2.6-6.2,4.3-9c0.8-1.5,1.7-2.8,2.6-4.3c1-1.4,1.9-2.8,2.9-4.1
		l1.5-2l1.6-1.9c1-1.3,2.2-2.5,3.3-3.7c9.1-9.7,20.1-17.4,31.8-23.5c5.9-3.1,12-5.6,18.2-7.9c6.2-2.2,12.5-4.1,19-5.6l2.4-0.6
		l2.4-0.5c1.6-0.3,3.2-0.7,4.8-1c3.3-0.5,6.5-1.1,9.8-1.5c6.5-0.9,13.1-1.4,19.7-1.9c-6.6,0.5-13.1,1.1-19.6,2.1
		c-3.3,0.4-6.5,1.1-9.7,1.7c-1.6,0.3-3.2,0.7-4.8,1l-2.4,0.5l-2.4,0.6c-6.4,1.5-12.7,3.5-18.8,5.8c-6.2,2.3-12.2,4.9-18,8
		c-11.6,6.2-22.3,14-31.1,23.7c-1.1,1.2-2.2,2.4-3.2,3.7l-1.5,1.9l-1.5,2c-1,1.3-1.9,2.7-2.8,4c-0.8,1.4-1.7,2.8-2.5,4.2
		c-1.6,2.8-3,5.8-4.1,8.8c-1.1,3-2,6.2-2.4,9.3c-0.1,0.5-0.6,0.9-1.1,0.8C297.5,1347.8,297.2,1347.3,297.2,1346.7
		C297.2,1346.7,297.2,1346.7,297.2,1346.7z"/>
</g>
<g>
	<path class="st16" d="M577.2,1276.8c-10.1-2.6-20.2-5.4-30.4-7.4c-10.2-2-20.6-3.6-30.9-3.3c-5.2,0.2-10.3,0.9-15.4,2
		c-5.1,1.1-10.1,2.4-15.3,3.3c-1.3,0.2-2.6,0.4-3.9,0.6l-1.9,0.3l-2,0.2l-3.9,0.4c-1.3,0.1-2.7,0.2-4,0.2c-5.3,0-10.5-0.3-15.7-0.6
		c-20.8-1.2-41.6-3-62.5-3.2c-10.4-0.1-20.8,0.1-31.2,0.9c-5.2,0.4-10.3,1-15.5,1.9c-5.1,0.9-10.2,2.1-15.1,3.8l0,0
		c-1.6,0.7-2.9,1.9-3.9,3.4c-1,1.4-1.7,3.1-2.2,4.8c-0.4,1.7-0.6,3.5-0.4,5.3c0.2,1.8,0.8,3.5,1.9,4.8l0,0c0.1,0.1,0.1,0.4,0,0.5
		l0,0c-1.7,1.4-3.6,2.5-5.4,3.8c-1.8,1.2-3.6,2.4-5.4,3.7c-3.5,2.5-7,5.2-9.8,8.6c1.3-1.7,2.9-3.3,4.5-4.7c1.6-1.5,3.3-2.8,5.1-4.1
		c1.7-1.3,3.5-2.6,5.3-3.8c1.8-1.3,3.6-2.5,5.2-3.9l0,0.5c-1.3-1.5-2-3.3-2.2-5.2c-0.2-1.9-0.1-3.8,0.3-5.7c0.4-1.8,1.2-3.6,2.3-5.2
		c1.1-1.6,2.5-3,4.3-3.8l0,0l0,0c4.9-1.8,10.1-3.1,15.2-4c5.2-1,10.3-1.7,15.6-2.2c10.4-1,20.9-1.2,31.3-1.1
		c10.5,0.1,20.9,0.5,31.3,1.1c10.4,0.6,20.8,1.4,31.2,2.1c5.2,0.3,10.4,0.7,15.6,0.6c1.3,0,2.6,0,3.8-0.1l3.9-0.4l1.9-0.2l1.9-0.3
		c1.3-0.2,2.6-0.3,3.8-0.6c5.1-0.9,10.2-2.1,15.3-3.2c5.1-1,10.4-1.7,15.6-1.8c5.3,0,10.5,0.3,15.7,1.1l3.9,0.5l3.9,0.7
		c2.6,0.5,5.1,0.9,7.7,1.6C557.2,1270.8,567.2,1273.8,577.2,1276.8z"/>
</g>
<path class="st15" d="M503.1,1298.5c-16.1-4.3-32.6-7.1-39.9-9.8c8.1,12.4,10.3,4.4,22.1,16.4
	C494.8,1299.7,500.2,1299.8,503.1,1298.5z"/>
<g>
	<path class="st16" d="M558.7,1485.6c-0.9,0.1-1.9,0-2.9-0.5c-1-0.5-1.6-1.4-2-2.2c-0.7-1.7-0.8-3.5-0.8-5.1c0-0.8,0-1.6,0-2.3
		c0-0.2,0-0.3-0.1-0.4c0-0.1,0-0.1,0-0.1c0,0,0,0,0,0.1c0,0.1,0.1,0.1,0.2,0.2c0.1,0.1,0.2,0.1,0.3,0.1l-0.1,0l-0.3,0l-0.6,0
		l-4.8-0.1c-6.4-0.2-12.8-0.6-19.1-1.4c-3.2-0.4-6.3-0.9-9.5-1.6c-3.1-0.7-6.2-1.5-9.3-2.6c-3-1-6-2.3-8.9-2.1
		c-1.5,0.1-3.1,0.3-4,1.2c-0.5,0.4-0.7,1-1,1.8c-0.1,0.4-0.2,0.8-0.6,1.3c-0.1,0.1-0.2,0.2-0.3,0.3c-0.1,0.1-0.3,0.2-0.4,0.3
		c-0.3,0.2-0.6,0.2-0.9,0.2c-1.1-0.1-1.8-0.4-2.6-0.7c-0.8-0.3-1.5-0.7-2.2-1.1c-1.4-0.8-2.8-1.6-4.1-2.5c-2.7-1.7-5.3-3.5-8-5.3
		c-5.3-3.6-10.5-7.2-15.7-10.9l-3.9-2.8c-1.3-0.9-2.6-1.9-3.8-2.9c-1.3-0.9-2.5-2-3.7-3.1c-0.6-0.5-1.2-1-1.8-1.6l-1.7-1.7
		c-4.5-4.5-8.5-9.6-11.8-15.1c-6.6-11-10.3-23.5-11.9-36.1c-1.6-12.7-1.2-25.5,0.6-38.1c0.9-6.3,2.1-12.6,3.6-18.8
		c1.5-6.2,2.4-12.5,3.9-18.7c1.5-6.2,3.4-12.3,6.1-18c2.7-5.8,6.1-11.2,10-16.2c-3.9,5-7.2,10.5-9.9,16.3c-2.7,5.8-4.6,11.9-6,18.1
		c-1.4,6.2-2.4,12.5-3.8,18.7c-1.4,6.2-2.6,12.4-3.4,18.7c-1.7,12.6-2,25.4-0.3,38c1.7,12.5,5.5,24.9,12,35.7
		c3.3,5.4,7.2,10.4,11.7,14.8l1.7,1.7c0.6,0.5,1.2,1,1.8,1.6c1.2,1,2.4,2.1,3.6,3c1.3,0.9,2.5,1.9,3.8,2.8l3.9,2.7
		c5.2,3.6,10.4,7.3,15.7,10.8c2.6,1.8,5.3,3.5,8,5.2c1.3,0.8,2.7,1.7,4.1,2.4c0.7,0.4,1.4,0.7,2.1,1.1c0.7,0.3,1.4,0.6,2,0.6
		c0.2,0,0.3,0,0.4-0.2c0.1-0.2,0.2-0.5,0.4-0.9c0.2-0.8,0.6-1.7,1.3-2.3c0.7-0.7,1.6-1.1,2.4-1.3c0.4-0.1,0.8-0.2,1.3-0.2
		c0.4-0.1,0.8-0.2,1.3-0.1c1.7-0.2,3.4,0.2,5,0.6c1.6,0.4,3.1,1,4.6,1.5c3,1,6,1.8,9.1,2.5c3.1,0.6,6.2,1.1,9.3,1.5
		c6.3,0.8,12.6,1.1,18.9,1.3l4.8,0.1l0.6,0l0.3,0l0.1,0c0.1,0,0.4,0,0.6,0.1c0.2,0.1,0.3,0.2,0.4,0.3c0.1,0.1,0.1,0.2,0.2,0.3
		c0.1,0.2,0.1,0.4,0.2,0.5c0.1,0.3,0.1,0.5,0.1,0.7c0.1,0.9,0,1.7,0.1,2.4c0,1.5,0.1,3.1,0.7,4.3c0.5,1.2,1.5,1.7,2.9,1.5
		c0.5-0.1,1,0.3,1.1,0.9C559.6,1485,559.2,1485.5,558.7,1485.6L558.7,1485.6L558.7,1485.6z"/>
</g>
<path class="st31" d="M792.9,1337.6c-3.2-1.4-7.4-1.4-10.1,2.9c-6.2-3.6-11.5-4.3-12.6,2.2c-0.5,6.5,11.6,5.8,15.1,14
	c2-1.8,7.8-5.7,10.4-10.7C797.3,1342.9,796,1339,792.9,1337.6z M785.4,1354.6c-3-5.7-14-7.1-13.8-11.6s5.5-6.3,12.1,1.1
	c0.5-0.7,1.6-6.3,8.7-4.7C799.4,1341,789.1,1350.7,785.4,1354.6z"/>
<g>
	<path class="st16" d="M340.1,926l0.3,2.1c0,0.4,0.1,0.7,0.2,1.1c0.1,0.3,0.2,0.7,0.5,0.7c0.3,0,0.6-0.1,0.9-0.3
		c0.3-0.2,0.6-0.4,0.9-0.6c0.3-0.2,0.6-0.4,0.9-0.6l0.2-0.2l0.1-0.1l0.2-0.1c0.1-0.1,0.4-0.1,0.5,0c0.2,0.1,0.2,0.2,0.3,0.3
		c0.4,0.7,0.6,1.4,0.9,2c0.3,0.6,0.6,1.3,1,1.9c0.7,1.2,1.6,2.4,2.5,3.4c3.8,4.2,8.8,7.1,14,9.5c2.6,1.2,5.3,2.2,8,3.1
		c2.7,0.9,5.5,1.8,8.2,2.6c5.5,1.8,10.9,3.8,16.3,6c10.7,4.4,21.1,9.3,31.7,13.8c10.6,4.5,21.2,8.8,32,12.9
		c-11-3.3-21.9-7.1-32.6-11.4c-5.4-2.1-10.6-4.4-15.9-6.7c-5.3-2.3-10.5-4.6-15.9-6.7c-5.3-2.2-10.7-4.2-16.1-6
		c-2.7-0.9-5.4-1.8-8.2-2.8c-2.7-1-5.4-2.1-8-3.4c-5.2-2.5-10.3-5.7-14.1-10.2c-0.9-1.1-1.7-2.4-2.4-3.7c-0.3-0.7-0.6-1.3-0.9-2
		c-0.3-0.7-0.5-1.4-0.7-2c-0.1-0.1-0.1-0.1-0.1-0.1c0,0,0,0-0.1,0l-0.1,0.1l-0.2,0.1c-0.3,0.2-0.6,0.4-0.9,0.6
		c-0.3,0.2-0.6,0.4-1,0.5c-0.3,0.2-0.7,0.3-1.1,0.3c-0.2,0-0.4-0.2-0.5-0.4c-0.1-0.2-0.1-0.4-0.2-0.5c-0.1-0.4-0.1-0.7-0.1-1.1
		L340.1,926z"/>
</g>
<path class="st15" d="M1177.7,949.3c-6.9-3.9-9-8.4-12.2-4.6c-3.8,4.6-8.4,8.4-13.8,10.8c-25.4,10.9-71,10.6-92.5,29.4"/>
<g>
	<path class="st16" d="M1091,826.6c-4.4,7.1-8.5,14.4-11.8,22.1l-1.2,2.9c-0.4,1-0.8,1.9-1.1,2.9c-0.7,2-1.3,3.9-2,5.9l-1.6,6
		c-0.5,2-0.9,4.1-1.3,6.1c-1.7,8.2-2.8,16.4-3.8,24.7c-0.5,4.1-1,8.3-1.4,12.5l-1.3,12.5c-1.6,16.6-3.3,33.3-5,49.9
		c-0.9,8.3-1.8,16.7-2.7,25c-0.1,1-0.2,2.1-0.4,3.1l-0.5,3.1l-1.1,6.2l-2.2,12.4l-8.8,49.4c-2.9,16.5-5.8,32.9-8.9,49.4
		c-3.1,16.4-6.2,32.9-9.8,49.2c-1.8,8.2-3.7,16.3-6,24.4c-1.1,4-2.4,8-3.8,12c-1.4,3.9-3.1,7.8-5.3,11.4c2.1-3.6,3.6-7.5,5-11.5
		c1.3-4,2.5-8,3.6-12c2.1-8.1,3.9-16.3,5.6-24.4c3.4-16.4,6.3-32.8,9.2-49.3l17.3-98.9l2.2-12.3l1.1-6.2l0.6-3.1
		c0.1-1,0.2-2.1,0.4-3.1c0.9-8.3,1.9-16.6,2.8-24.9l5.3-49.9l1.4-12.5c0.5-4.2,1-8.3,1.5-12.5c1.1-8.3,2.3-16.6,4.1-24.8
		c0.5-2,0.9-4.1,1.5-6.1l1.7-6c0.7-2,1.4-4,2.1-5.9c0.3-1,0.8-2,1.2-2.9l1.2-2.9C1082.2,840.9,1086.4,833.6,1091,826.6z"/>
</g>
<g>
	<path class="st16" d="M1125.5,880.6l-17.7,26.1c-5.9,8.7-11.7,17.5-17.3,26.4c-5.7,8.8-11.2,17.8-16.6,26.8
		c-5.4,9-10.7,18.1-15.9,27.3c4.5-9.5,9.4-18.9,14.5-28.1c5.1-9.2,10.6-18.2,16.3-27.1c5.7-8.9,11.6-17.6,17.7-26.2
		C1112.6,897.3,1119,888.9,1125.5,880.6z"/>
</g>
<g>
	<path class="st16" d="M966.5,1283.9c4.6-1.6,8.8-4,12.5-7c3.8-3,7-6.5,10-10.3c5.9-7.5,10.3-16.1,13.6-25.1
		c6.7-17.9,9.3-37.3,8.5-56.3c-0.2-4.8-0.6-9.5-1.2-14.3l-1-7.1c-0.3-2.4-0.8-4.7-1.1-7.1c-1.6-9.5-3.7-18.8-6.1-28.1
		c-2.4-9.3-5.3-18.4-8-27.7c-1.3-4.6-2.5-9.3-3.3-14.1c-0.8-4.8-1.2-9.6-0.9-14.4c0,4.8,0.5,9.6,1.5,14.3c1,4.7,2.3,9.3,3.7,13.9
		c2.9,9.2,6,18.3,8.6,27.6c2.7,9.3,4.7,18.7,6.4,28.2c0.4,2.4,0.9,4.7,1.2,7.1l1,7.2c0.6,4.8,1.1,9.6,1.3,14.4
		c0.1,2.4,0.1,4.8,0.1,7.3c-0.1,2.4-0.1,4.8-0.3,7.3c-0.3,4.8-0.7,9.7-1.5,14.4c-1.5,9.6-3.9,19-7.4,28c-3.5,9-8.2,17.6-14.3,25.1
		c-3.1,3.7-6.5,7.2-10.4,10.1C975.5,1280.3,971.1,1282.6,966.5,1283.9z"/>
</g>
<path class="st0" d="M1000.3,1249.2c0,0,14.2-2.2,24-12.3c12.2-14.6,93.4-32.3,101.9-39.3c-22-13-104.7,7.1-117,24.4
	c17.8-24,72.1-39.1,78.2-56.8c-15.1,9.2-46.2,2.8-54.3,20.3c14.8-30.5,84.2-95.4,92.4-128.3c-17.8,24.7-37.3,26.4-59.8,54.9
	c25.4-36.6,75.8-102,79-121c-23.5,19.9-56,40.5-72.2,55.1c24.6-28.7,39.9-64.1,67.9-73.8c-18.2,3.9-56.3,19.9-66.3,19.5
	c30.8-15.3,13.7-18.7,58.6-30.7c-45.7,8.8-66.1,13.7-74.9,26.6c-0.4,3.6-7.6,48.2-17.3,102.2
	C1030.7,1145.2,1018.1,1210.2,1000.3,1249.2z"/>
<g>
	<path class="st16" d="M994.5,1259.8c-2.3,3.4-4.9,6.7-7.3,10c-1.2,1.7-2.4,3.4-3.3,5.2c-0.2,0.4-0.4,0.9-0.5,1.4
		c-0.1,0.2-0.1,0.4-0.1,0.6c0,0.2,0.1,0.3,0.2,0.3c0.2,0.2,0.8,0.1,1.2,0.1c0.5-0.1,1-0.2,1.5-0.3c8.1-1.5,16.3-2.8,24.4-3.9
		c16.4-2.2,32.8-3.6,49.3-4.3c8.3-0.3,16.5-0.3,24.8-0.1c8.3,0.2,16.5,0.7,24.7,1.7c8.2,0.9,16.4,2.2,24.4,4.1
		c8,1.9,16,4.4,23.5,7.9c-7.7-3-15.6-5.3-23.7-6.9c-8.1-1.7-16.2-2.8-24.4-3.5c-16.4-1.5-32.9-1.8-49.3-1.1
		c-16.4,0.5-32.9,1.9-49.2,3.8c-8.2,1-16.3,2-24.5,3.4c-0.5,0.1-1,0.2-1.5,0.2c-0.5,0-1.1,0.2-1.8-0.2c-0.3-0.2-0.5-0.6-0.6-1
		c0-0.3,0-0.6,0.1-0.9c0.2-0.6,0.4-1,0.6-1.5c1-1.8,2.3-3.5,3.5-5.1C989.4,1266.2,992,1263,994.5,1259.8z"/>
</g>
<g>
	<path class="st16" d="M1169,1339.5c0.5-3.1,0.1-6.2-0.7-9.2c-0.9-3-2.3-5.7-3.9-8.4c-3.3-5.2-7.5-9.8-12-14
		c-4.6-4.1-9.5-7.9-14.7-11.3c-5.2-3.4-10.5-6.5-16.1-9.2c-5.5-2.8-11.2-5.3-17-7.4c-5.8-2.2-11.7-4-17.7-5.5
		c-12-3-24.4-4.7-36.9-4.2c6.2-0.7,12.5-0.6,18.7-0.2c6.2,0.5,12.4,1.5,18.5,2.9c12.2,2.8,24.1,7.1,35.3,12.7
		c11.2,5.6,21.8,12.5,30.9,21.2c4.5,4.3,8.7,9.1,11.8,14.6c1.5,2.8,2.8,5.7,3.5,8.7C1169.5,1333.2,1169.6,1336.4,1169,1339.5z"/>
</g>
<g>
	<path class="st16" d="M1004.2,1274.7c7.8,1.8,15.7,2.5,23.7,2.7c8,0.4,15.9,0.6,23.9,1.3c8,0.6,15.9,1.7,23.8,3.1
		c7.9,1.4,15.7,3.2,23.4,5.2c3.9,1.1,7.7,2.6,11.3,4.5c3.6,1.9,6.9,4.2,10.1,6.7c3.1,2.5,6,5.3,8.9,8.1c1.4,1.4,2.9,2.7,4.4,3.8
		c1.5,1,3.4,1.8,5.2,2.7c3.6,1.8,7.1,4,10,6.9c2.9,2.8,5.4,6.1,7.4,9.6c3.9,7,6.3,14.8,7.7,22.6l-1.5-5.8c-0.6-1.9-1.2-3.8-1.9-5.7
		l-1.1-2.8l-0.6-1.4l-0.7-1.3l-1.3-2.7l-1.5-2.6c-2.1-3.4-4.5-6.5-7.4-9.2c-2.9-2.7-6.2-4.7-9.8-6.4l-2.7-1.2
		c-0.5-0.2-0.9-0.4-1.4-0.7c-0.5-0.2-0.9-0.5-1.4-0.8c-1.7-1.2-3.2-2.6-4.7-3.9c-2.9-2.7-5.8-5.5-8.9-7.9c-3.1-2.5-6.4-4.7-9.8-6.5
		c-3.5-1.8-7.1-3.2-10.9-4.3c-7.7-2-15.4-3.9-23.2-5.4c-7.8-1.5-15.7-2.5-23.6-3.3c-7.9-0.8-15.9-1.3-23.8-1.8
		C1019.9,1277.8,1011.9,1276.9,1004.2,1274.7z"/>
</g>
<g>
	<path class="st16" d="M1078.2,1283.2c9.2,5.3,18.2,11,26.8,17.1c8.6,6.2,16.8,13.1,23.9,21.2c7.1,8,12.7,17.3,16.3,27.5
		c3.6,10.1,5.1,20.9,4.9,31.6c-0.1,10.7-2.5,21.5-7.1,31.2c-2.3,4.9-5,9.5-8,13.9c-3,4.4-6.4,8.6-10,12.5
		c-7.1,7.9-15.2,15-23.6,21.4c-4.3,3.2-8.7,6.2-13.2,9c-2.3,1.4-4.5,2.8-6.9,4c-1.2,0.6-2.3,1.2-3.5,1.8c-1.2,0.6-2.4,1.2-3.7,1.5
		c1.3-0.4,2.4-1,3.6-1.6c1.2-0.6,2.3-1.3,3.5-1.9c2.3-1.3,4.5-2.8,6.7-4.2c4.4-2.9,8.7-6,12.9-9.3c8.3-6.5,16.2-13.7,23.1-21.7
		c3.5-4,6.7-8.1,9.7-12.5c2.9-4.4,5.6-8.9,7.8-13.7c4.5-9.5,6.8-19.9,6.8-30.4c0.2-10.5-1.2-21.1-4.7-31c-3.4-9.9-9-19-15.8-27.1
		c-6.8-8.1-14.8-15-23.3-21.4C1096,1294.7,1087.1,1288.9,1078.2,1283.2z"/>
</g>
<g>
	<path class="st16" d="M972,1301.9c8.7-3.3,17.8-5.6,27.1-6.8c9.2-1.2,18.7-1.3,27.9,0.2c9.2,1.4,18.2,4.5,26.2,9.4
		c4,2.5,7.7,5.4,11,8.6c3.3,3.3,6.5,6.7,9.5,10.2c6,7.1,11.2,14.9,14.7,23.6c3.5,8.6,5.1,18,4.7,27.3c-0.2,4.6-0.8,9.3-1.7,13.8
		c-0.9,4.5-2.2,9-3.7,13.4c-3.1,8.7-7.1,17.1-11.6,25.2c4.5-8.1,8.3-16.5,11.3-25.3c1.4-4.4,2.7-8.8,3.6-13.4
		c0.9-4.5,1.4-9.1,1.5-13.7c0.3-9.2-1.4-18.5-4.9-27c-3.5-8.5-8.8-16.2-14.8-23.2c-3-3.5-6.2-6.8-9.5-10.1c-3.3-3.2-7-6-10.9-8.4
		c-7.8-4.8-16.7-7.7-25.8-9c-9.1-1.3-18.3-1.2-27.4,0.1c-9.1,1.3-18,3.6-26.6,6.9c-0.5,0.2-1.1-0.1-1.3-0.6
		C971.2,1302.7,971.4,1302.2,972,1301.9L972,1301.9z"/>
</g>
<g>
	<path class="st16" d="M946.4,1294.5c5.6-3.2,11.3-6.4,17.1-9.1c5.8-2.8,12-5.1,18.2-6.9c6.3-1.7,12.6-3.1,18.9-4.3
		c6.3-1.2,12.7-2.2,19.1-3.2c-6.2,1.7-12.5,3.2-18.8,4.7c-6.3,1.5-12.6,2.9-18.7,4.7c-6.2,1.7-12.2,3.9-18.1,6.4
		C958.2,1289.3,952.4,1291.9,946.4,1294.5z"/>
</g>
<g>
	<path class="st16" d="M1004.6,1489.6l2.3,0.2l1.2,0.1l1.2,0l2.3,0l2.3-0.2l1.2-0.1l1.1-0.2l2.3-0.3c1.5-0.3,3-0.6,4.5-1
		c6-1.5,11.8-3.8,17.3-6.5c11.1-5.5,21.3-12.7,30.5-20.8c4.6-4.1,9-8.5,13.1-13.1c4-4.7,7.8-9.6,10.6-15l1-2.1l0.8-2.1l1.5-4.4
		c1-2.9,2-5.9,2.9-8.8c1.8-5.9,3.5-11.9,4.7-17.9c1.3-6,2.3-12.1,2.6-18.2c0.1-1.5,0.1-3.1,0.1-4.6l-0.1-2.3c0-0.8-0.1-1.5-0.2-2.3
		l-0.2-2.3l-0.3-2.3l-0.7-4.6l-0.7-4.6c-0.2-1.5-0.4-3-0.7-4.5l-0.4-2.3c-0.2-0.8-0.4-1.5-0.5-2.2c-0.2-0.7-0.4-1.5-0.6-2.2
		l-0.7-2.2c-1.8-5.9-4.2-11.6-7.1-17c-5.9-10.8-14.2-20.3-23.7-28.1c-9.5-7.9-20.3-14.3-31.8-19c5.8,2.1,11.5,4.7,16.9,7.8
		c5.4,3.1,10.6,6.5,15.5,10.4c4.9,3.9,9.4,8.2,13.5,12.9c4.1,4.7,7.8,9.8,10.9,15.2c0.8,1.3,1.5,2.8,2.2,4.1c0.7,1.4,1.3,2.8,2,4.2
		c1.2,2.9,2.3,5.8,3.2,8.8l0.7,2.2c0.2,0.8,0.4,1.5,0.6,2.3c0.2,0.8,0.4,1.5,0.6,2.3l0.5,2.3c0.3,1.5,0.5,3.1,0.8,4.6l0.7,4.6
		l0.7,4.6l0.3,2.3l0.3,2.4c0.1,0.8,0.1,1.6,0.2,2.4l0.1,2.4c0,1.6,0,3.1-0.1,4.7c-0.3,6.3-1.2,12.5-2.5,18.6c-1.3,6.1-3,12.1-4.9,18
		c-0.9,3-1.9,5.9-2.9,8.9l-1.5,4.4l-0.9,2.2l-1,2.1c-3,5.6-6.8,10.6-10.9,15.3c-4.1,4.7-8.6,9-13.3,13.1
		c-9.5,8.1-19.8,15.2-31.1,20.6c-5.7,2.6-11.5,4.8-17.6,6.2C1017.1,1489.9,1010.8,1490.4,1004.6,1489.6z"/>
</g>
<path class="st15" d="M1042.2,1324.7c6.7,0.4,11-6.3,22.3,39.5c11.3,45.8-58.1,87.5-58.1,87.5"/>
<path class="st15" d="M792.7,1484.1c4.5,9.3,1,7,2.7,9.6"/>
<path class="st15" d="M540.4,2000c-29.3-50.7-20.3-112.9-31.3-119.8"/>
<path class="st15" d="M560.4,1999.8c-1.6-15-19.9-55.3-17.9-77.7c2-22.4-2.4-36.6-7.7-41.9"/>
<path d="M761.6,418.8c9-3.5,11-11.9,19.6-12c4.1,0.1-6.2-6.5-23.6-4.2c-5.4,0.7-10.6,2.5-15.2,5.5c-11.8,7.7-11.6,17.5-14.4,21
	c18.1,1.5,30.1-6.5,33-9.8c-4.8,1.5-13.5,6.4-28.3,6.7c-0.4-4.8,5.2-16,23.4-18.6c7.6-0.7,10.4-0.8,12.9-0.6
	C768.6,409.2,768.2,413.6,761.6,418.8z"/>
<path d="M645.2,482.7c-12.1,3.2-16.2,10.1-35.1,8.9c5.5-8.3,18.8-30.6,42.4-16.8c-1.8,2.3-7.6,2.7-13.2,10.1c6-3.9,16.6-5.2,17.5-9
	c0.9-4.2-17.1-13.5-31.3-6.8c-16.6,7.6-19,26.3-26.2,30.5c-1.3,0.4,3.7,2.3,13.1,0C635.3,493.6,628.6,491.1,645.2,482.7z"/>
<path class="st20" d="M605.6,324.7"/>
<g>
	<path d="M878.6,524.3c-2.8-4.6-3.9-3.7-3.9-3.7c7.5,46-9.8,60.4-11.1,74c-1,18.5-0.4,33.3,0.2,41.4c10-11.6,5.4-26.4,24-37.4
		c-5.1,4.9-4,3-9.9,11.2c-5.8,8-6.3,18.6-14.1,26.3c0.3,4.4,0.6,6.9,0.6,6.9C917.3,580.9,893,555.4,878.6,524.3z M864.5,614.3
		c11.1-14.6,18.1-36.9,12-64.7v-6.5C888.8,568.1,879.2,601.6,864.5,614.3z M876.5,528.3c28.5,42.6,15,64.1,10.1,73.7
		c-0.4,1-0.8,2-1.3,3c0.2-0.8,0.7-1.9,1.3-3C900.8,567.7,887.8,552.7,876.5,528.3z"/>
	<path d="M863,636.8c0.2-0.2,0.5-0.5,0.7-0.7c0,0,0-0.1,0-0.1C863.5,636.3,863.2,636.6,863,636.8z"/>
</g>
<path d="M874,516.6l0.5,2.6c52.2,62.8,16,90.7-9.6,128.1C935.8,580.3,902.1,549.4,874,516.6z M875.2,633
	c40.7-42.9,29.3-72.4,17.7-91.9C921,577.6,890.7,625.1,875.2,633z"/>
<path class="st16" d="M598.7,303.7"/>
<path class="st32" d="M698.9,1243.4c-5.5-6.1-4.8-9.9-11.8-5.7C687.7,1243.7,689.7,1250.2,698.9,1243.4z"/>
<path class="st0" d="M503.1,838.5c54.3,112.6,62.3,269.4,30.9,339.7c-25,60.3,84.8,68.4,60.1,102.1c-8.9-3.1-14.8-3.6-17.8-3.5
	c-4.7-0.9-43.2-15.2-73.1-10c-1.8-6.5-37.2-94.8-43.7-331.6c8.4,87.6,17.5,194.8,27,236.8c9.5,42,26.2,11.7,30.2-18.1
	c4-29.8,23.7-159.8-13.5-278.8c20.2,39.2,33.6,122.8,31.5,135.5C539.1,971.8,523.2,885.5,503.1,838.5z"/>
<path class="st0" d="M409.6,1030.4c-17.5-0.4-32.5-41.3-42.7-41.1c-10.2,0.2-23.4,60.2-18.1,76.1c5.3,15.9-1.2,31.7-2.4,50
	c-1.2,18.3-4.5,33.8-1.6,45.2c2.8,11.4-9.2,41-13.8,43.9c-4.6,2.9-4.6-12.6-15.1,5.1c-1.2,0.2-3.5,0.6-5.8,1
	c1.2-102.8,19.8-212.3,17.2-242.2c-2-25.9,3.7-17.6,12.8-42.3c0.1,2,0.3,3.4,0.8,4c10.6,26.5,29.1,18.8,31.2,41.4
	C396.4,999.8,388.5,1024.1,409.6,1030.4z"/>
<path class="st0" d="M496.8,1246.8c-5-8.2-19.5-9.8-25.7-15c-6.2-5.2,2-32.3-1-38.2s-8.1-47.4-8.5-64.3
	c-1.9-81.8-16-108.7-17.1-121.1c-25.2-22.4-42.7-4.8-63.7-45.8c21.8,18.9,18.9,6.3,65.9,37.7c11.8-9.5-8.7-19.2-32.3-85.1
	c0,0,19.1,34.6,31.3,47.2c2-11.4-17.1-50-30.1-85.8c0,0,26.2,35.9,22.3,16.7c-2.9-33.4-23.8-61.8-27.8-86.4c1.4,0.6,12,6.4,25,36.3
	c2.4,9,20.3,60.6,24.3,92.3"/>
<path class="st15" d="M1663.6,899.2c-21.1,52.5-18.6,169-61.6,230c10.7,27.5,13,56.3,11.8,71.8c1.5,10.8,19.2,41.6,6.9,102.4"/>
<path d="M579.8,367.6c-2.6,2.8-5.1,5.3-7.5,7.8c0,0,0,0.1-0.1,0.1c-1.3,1.7-2.5,3.5-3.6,5.3c-4.5,7.4-6.7,16-6.6,24.7
	c0.1,19.7-3.5,46.2-6.3,59.8c-0.2,0.9,1.1,1.3,1.5,0.4c8.7-21.7,5.7-61.9,9.2-74.9c1.5-5.6,11.9-17.3,21.2-29.4
	c0.6-0.8-0.5-1.7-1.2-1C584.2,363.1,582,365.4,579.8,367.6C579.8,367.6,579.8,367.6,579.8,367.6
	C579.8,367.6,579.8,367.6,579.8,367.6z"/>
<path d="M588.6,356.2c-2.9,3.8-5.9,7.6-8.8,11.4c0,0,0,0,0,0c13.8-15.2,21.7-24.5,23.2-33.3C599.2,342.9,594,349.9,588.6,356.2z"/>
<path d="M862.8,340.3c-2.2-0.4-4.2-0.7-6.3-1c0.1,0.3,0.3,0.5,0.4,0.8C858.9,340.2,860.9,340.2,862.8,340.3z"/>
<path d="M803.5,354.9C803.5,354.9,803.5,354.9,803.5,354.9c1.3,1.8,2.7,3.2,4.1,4.2C806.3,357.7,805,356.3,803.5,354.9z"/>
<path d="M561.3,544.4c-4.9,8.8-2.5,15.4,3.3,23c5.8,7.6,14.3,32.5,15.6,37.5c0.5,2.1,0.9,3.8,1.2,5c0.2,0.7,1.1,0.7,1.3,0
	c1.2-3.6,2.3-5.6,5.2-6c0.6-0.1,0.8-0.9,0.3-1.2c-6.3-4.3-12.5-11.7-13.8-28.3c-0.6-7.9-4.9-15.1-8-22.4
	C564.4,547.4,562.5,544.1,561.3,544.4z"/>
<path d="M840.6,386.3c9.4,20.5,24.9,34.2,26.8,49C865.8,418.8,850.2,403.8,840.6,386.3z"/>
<path d="M839.1,392.2c11.5,26.1,23.3,32.4,20.9,50.2C866.2,427.3,848.7,411.5,839.1,392.2z"/>
<path d="M834.7,394.6c10.5,15,14.8,5.5,13.9,1.7C850.1,398.4,846.3,412.8,834.7,394.6z"/>
<path d="M844.7,387c11,7.6,17.7,5.2,24.3,18.6C869.2,401.3,861.5,390.7,844.7,387z"/>
<path class="st0" d="M825.4,649.4c-24.2,37.5-120.4,79-128.5,90c-8.1,11-15.4,8.4-15.7,25.9c-11.3-3.9-27.4-14.2-28.6-20.7
	c-1.2-6.4,12.6-8.5-2-57c-11.3-31.1-18.5-40-19-47.8c35.4,35.8,108.8,61.4,177.4,22.9C814.7,659.1,820.1,653.9,825.4,649.4z"/>
<path class="st0" d="M444.9,1846.4c-12.1-5.7-27-13.5-53.5-24.9c-1-0.4-2-0.8-3-1.1c-33.1-9.5-45.6-31.6-46.9-32.1
	c-7.3-2.5-4.1-11.2-8.4-15.1c-1.4-1.4-7.1-5.3-7.7-6.9c-0.2-1-1.8-0.3-3.6-0.1c-6.3-13.7-1.9-15.2-5.3-18.9
	c-1.8-1.2-0.8,2.8-5.7,2.9c7.1-21.3-2.6-27.2,10.2-46.8c5.7-23.8,14-37.8,25.4-55.5c11.4-17.7,30.1-93.2,58.3-183.3
	c1.3,0.6,4.5,1.7,9.1,1.3c6.6-0.3,8.7-1.5,16,2.7c43.5,27,62.2,28.9,80.4,29c14.1-0.5,26.8-2.7,43.6-10.6c11.6-5.3,18-13.2,31.6-6.1
	c9.7,5.1,16.4,14.7,17.9,25.6c2.6,18.5-2.2,47.9-39.7,72.1c-12,12.4-104.8,21-99.9,42.9s-3.1,88.5-24.4,111.7
	S454.7,1814.3,444.9,1846.4z"/>
<path class="st0" d="M1048.3,1259.8c78.7-4.2,109.2,16.6,109.2,16.6c-20.1-4-108.3-14.5-168.1,1.1c-7,1.8-7.4-1.5,8-22.5
	c16.8-4.4,104-30.2,135.7-21C1108.7,1242.2,1048.3,1245.3,1048.3,1259.8z"/>
<linearGradient id="SVGID_4_" gradientUnits="userSpaceOnUse" x1="700.3995" y1="1110.8341" x2="949.5262" y2="1148.7344">
	<stop  offset="5.434346e-07" style="stop-color:#F7EEE7"/>
	<stop  offset="0.6445" style="stop-color:#DACDC5"/>
	<stop  offset="1" style="stop-color:#C9B9B1"/>
</linearGradient>
<path class="st33" d="M940,1142.1c0,0.4-0.1,0.9-0.1,1.3c-0.2,1-0.5,2-1,2.9c-8,15.6-59.1,18.4-123.4,14.4
	c-22.2-1.4-46.4-5.1-68.2-10.3c-6-1.9-12.1-3.5-18.4-5c0,0,0,0,0,0c0,0,89.7-24.7,103.2-48.4c45,7.5,84.4,21.4,100.4,34c0,0,0,0,0,0
	c3.4,2.7,5.8,5.3,6.8,7.8C939.8,1139.9,940.1,1141,940,1142.1z"/>
<path class="st19" d="M843.6,394.8c-3-3.1-6-8.5-6-8.5c-11.8-18.1-13.8-26.6-23.6-27.2c-9.8-0.5-47.7,7.4-74.4,26.2
	c-34.8,21.5-37.3,38-55.8,49.6c-18.6,12.5-47.2,4.6-96.3,35.7c-10.5,7.8-23,20.5-26.2,23.4s-4.7,8.2-10,11.6
	c-2.2,1.3-4.5,2.5-4.5,2.5s3,7.8,6.2,12.1c4-4,6.3-5.6,8.8-4.5c2.5,1.1,4.2,0.7,7,4s30.2,34.3,49.9,34.2c19.6-0.1,54.9-17.7,64-46.4
	c14.3-38.1-12.5-47.5,4.5-61.1c15.6-11.3,29,25.1,58.3,29.3c35.1,4.5,69-22.7,72.3-41.1c6.5-38-11.1-60.4,0.5-64.8
	c1,5.2,6.5,16.2,10.8,15.5c3.3,5,11.6,15.2,11.6,15.2S838.5,396.3,843.6,394.8z M629.4,548.4c-17.4,4.5-37.7-7.2-54.3-29.9
	c-2.6-3.6-4.2-7.8-4.3-12.3c-0.4-16.9,18.9-29.1,29.6-36.2c21.4-12.8,49.5-20.9,64.1-17.5c3.3,0.8,6.1,3,7.6,6
	c5.3,10,6.4,21.1,6.6,30.4C679.4,520.9,656.5,540.2,629.4,548.4z M808.6,443.4c-10,18.3-53.1,39.5-77.3,20.7
	c-9.3-7.4-17.1-13.8-22.4-20.8c-3.5-4.6-4.6-10.6-2.6-16c3.9-10.7,16.3-25.3,40.7-39.4c33.4-19.5,51.7-16.7,56-10
	C812,387.1,820.6,424.1,808.6,443.4z"/>
<g>
	<path d="M729.9,417.3c0.8-2.4,1.9-4.6,3.2-6.7c1.3-2.1,2.8-4.1,4.6-6c1.7-1.9,3.6-3.5,5.7-5c2.1-1.5,4.3-2.7,6.6-3.8
		c2.3-1,4.7-1.8,7.2-2.4c1.2-0.3,2.5-0.4,3.7-0.6c1.3-0.1,2.5-0.3,3.8-0.2c5-0.1,10.1,0.6,14.8,2.1c-4.9-0.7-9.9-1-14.7-0.6
		c-0.6,0-1.2,0.1-1.8,0.2l-1.8,0.2c-1.2,0.2-2.4,0.4-3.6,0.7c-2.4,0.6-4.7,1.3-6.8,2.3c-4.4,1.9-8.5,4.7-12,8.1
		c-1.8,1.7-3.4,3.5-4.9,5.5C732.5,413.1,731.1,415.1,729.9,417.3z"/>
</g>
<g>
	<path d="M651.8,467.9c-5.1-1.6-10.4-2.4-15.6-2.5c-5.2-0.1-10.5,0.7-15.4,2.5c-4.9,1.8-9.3,4.6-13.1,8.3c-3.8,3.6-6.9,7.9-9.7,12.5
		c2-5,4.9-9.6,8.6-13.6c1.9-2,3.9-3.8,6.2-5.3c2.3-1.5,4.7-2.8,7.3-3.7c5.2-1.9,10.7-2.5,16.1-2.1
		C641.7,464.3,647,465.6,651.8,467.9z"/>
</g>
<g>
	<path class="st16" d="M684.3,516c-1,2.8-1.7,5.7-2,8.6c-0.3,2.9-0.2,5.9,0.9,8.5c0.5,1.3,1.3,2.5,2.3,3.4c1,1,2.2,1.7,3.4,2.2
		c1.3,0.5,2.7,0.8,4,1.1c0.4,0,0.9-0.1,1.2-0.4c0.2-0.1,0.3-0.3,0.3-0.5c0.1-0.1,0.2-0.6,0.3-1c0.5-1.6,1.3-3.1,2.5-4.3
		c1.2-1.2,2.7-2.1,4.3-2.7c1.6-0.5,3.2-0.7,4.8-0.7c1.6,0,3.2,0.2,4.7,0.5c3.1,0.6,5.9,1.7,8.7,2.7c1.4,0.5,2.8,1,4.1,1.4
		c0.3,0.1,0.7,0.2,1,0.2l0.5,0.1l0.5,0c0.2,0,0.3,0,0.5,0l0.4,0c0.3,0,0.6-0.1,0.9-0.1c1.2-0.3,2.3-0.9,3.2-1.7
		c0.9-0.8,1.6-2,2.1-3.2c0.5-1.2,0.7-2.5,0.7-3.9l0-1.1c0-0.4,0-0.9,0-1.3c0.1-0.8,0.2-1.7,0.5-2.5c1-3.2,3.1-5.8,5.4-7.9
		c2.4-2.1,5-3.7,7.8-5.1c1.4-0.7,2.9-1.2,4.4-1.6c0.8-0.2,1.6-0.3,2.4-0.3c0.9,0,1.4,0,2-0.2c0.6-0.2,1.1-0.5,1.5-0.9
		c0.2-0.2,0.4-0.5,0.5-0.7c0.1-0.1,0.1-0.3,0.2-0.4l0.2-0.5c0.2-0.7,0.5-1.4,0.6-2.1c0.1-0.7,0.3-1.4,0.4-2.1
		c0.9-5.7-0.3-11.8-3.4-16.9c3.6,4.7,5.4,11,4.8,17.1c-0.1,0.8-0.2,1.5-0.3,2.3c-0.1,0.8-0.4,1.5-0.5,2.2l-0.1,0.6
		c-0.1,0.2-0.1,0.4-0.2,0.6c-0.2,0.4-0.4,0.8-0.7,1.1c-0.6,0.7-1.3,1.2-2.2,1.6c-0.4,0.2-0.9,0.3-1.3,0.3l-1.1,0.1
		c-0.7,0.1-1.4,0.2-2,0.4c-1.3,0.4-2.7,0.9-3.9,1.5c-2.5,1.4-4.9,3-7,4.9c-2.1,1.9-3.8,4.2-4.5,6.7c-0.2,0.6-0.3,1.3-0.3,1.9
		c0,0.3,0,0.6,0,1l0,1.2c0,1.6-0.3,3.3-0.9,4.9c-0.6,1.6-1.5,3.1-2.8,4.3c-1.3,1.2-2.9,2.1-4.6,2.5c-0.4,0.1-0.8,0.2-1.3,0.2l-0.7,0
		c-0.2,0-0.4,0-0.7-0.1l-0.7-0.1l-0.6-0.1c-0.4-0.1-0.8-0.2-1.2-0.3c-1.5-0.4-3-1-4.4-1.5c-2.8-1.1-5.5-2.1-8.3-2.7
		c-2.8-0.6-5.6-0.9-8.1-0.1c-2.5,0.8-4.5,2.7-5.4,5.2c-0.1,0.3-0.2,0.5-0.4,1.1c-0.2,0.5-0.5,0.9-0.9,1.3c-0.8,0.7-1.9,1.1-3,0.9
		c-1.6-0.3-3.1-0.7-4.6-1.4c-1.4-0.7-2.8-1.6-3.9-2.8c-1.1-1.2-1.9-2.6-2.4-4.1c-1-3-0.8-6.2-0.3-9.1C682,521.5,683,518.6,684.3,516
		z"/>
</g>
<path class="st0" d="M572.4,1345.7c14.9,7.6,50.2,6.5,50.4,18.1c0.2,11.6-52.3,13.7-49.6,33.3s94.2,0.9,94.2,0.9
	c-5.9-25.8-7.3-46.6-19.4-60.4s-27.8-42.7-27.8-42.7c-14-7.5-22.9-10.6-38.6-7.9c-14.5,2.5-37.9,12.6-50.2,13.3
	c-2.8,0.2-5.6,0.5-8.3,1c-9.9,1.7-25.5,4.3-24,13.2c0.7,4.1,4.8,6.9,8.9,6.3c9.8-1.3,18,16.8,8.9,22.9c-1.5,1-2.8,2.5-3.3,4.3
	c-3.3,13.1,21.7,12,26.7,4.1C545.7,1343.4,564.9,1342.9,572.4,1345.7z"/>
<path class="st0" d="M948.6,1447c-22.5-41.5,2.6-78.6-24.6-113.5c2.6,11.2,5.1,41.4-1.6,50.3c-4.7-11,2.3-23.8-6.3-44.7
	c3.3,33.4-7.7,20-6,31.4c2.3,10.2,14.5,17.7-6.3,20.9c-3.5-0.1-0.6,10.1-17.2,13c0,0-17.9,41.7-24.5,49.4s-27.6,35.2-69.2,30.2
	c3.2,5.3,1.8,8.6,2.1,9.6c10.8-6.8,27.7-14.1,45.5-5.9c3.9-6.2,44.4-68.5,63.8-48.5c3.9-4.9,8.7-9.3,16-9.8
	C929.5,1428.8,941.4,1433.9,948.6,1447z"/>
<linearGradient id="SVGID_5_" gradientUnits="userSpaceOnUse" x1="575.8986" y1="1276.1599" x2="711.9918" y2="1276.1599">
	<stop  offset="0" style="stop-color:#F7EEE7"/>
	<stop  offset="0.2695" style="stop-color:#F4EAE3"/>
	<stop  offset="0.5447" style="stop-color:#E9DED7"/>
	<stop  offset="0.8216" style="stop-color:#D8CAC2"/>
	<stop  offset="1" style="stop-color:#C9B9B1"/>
</linearGradient>
<path class="st34" d="M711.8,1148.8c-30.3-10-49.8-26.1-41.9-40.2c-0.3,0.1-0.6,0.3-1,0.5c-7.4,10.4-1.9,17.8-4,37.5
	c0,0.2,0,0.5-0.1,0.7c0,0.1,0,0.1,0,0.2c-1.8-1.3-3.6-2.5-5.3-3.6c-10.9-6.8-20.5-9.9-28.7-10.6c0,0,0,0,0,0
	c-7.5-0.2-50.8,33.1-53.5,46.8c0.4,10.6-11.8,36.4,30.2,95.5c0.8,1.1,1.5,2.1,2.2,3.1c2.6,3.6,5.1,7.2,7.3,11
	c7.7,12.8,16.5,25.7,24.8,38.7c4.8,7.4,10.1,14.8,14.4,22.2c-0.7-4.1-1.3-8.3-1.8-12.7c0.7,4.4,1.5,8.5,2.4,12.6c0,0,0,0,0,0
	c0.3,1.5,0.7,3,1,4.5v0c0.1,0.5,0.2,1,0.4,1.5c0,0,0,0,0,0.1c0.4,1.2,0.8,2.5,1,3.8c2.5,12.5,10.6,52,14.8,61.3
	c1.6,4.7,5.7,13.3,11.3,21.9c-20.9-87.5,5.2-257.6,17.1-271.7C714.3,1157.9,711.8,1148.8,711.8,1148.8z M656.6,1231.4
	c-1.8,21.6-5.5,44.3-5.5,62.3c-15.3-13.9-40.1-51.1-49.8-84.4c-7.2-25-3.6-47.8,12.4-54.5c20.9-6.2,43.1,19.7,43.2,41.9
	C658.1,1207.2,657.7,1219.1,656.6,1231.4z"/>
<image style="display:none;overflow:visible;" width="956" height="844" xlink:href="C:\Users\User\Pictures\gdg.jpg"  transform="matrix(0.6 0 0 0.6 -1235.1047 2163.668)">
</image>
<g>
	<path class="st35" d="M918.1,1325.1c-6.4,27.3-15.2,43.8-19.9,53.4C907.4,1362.2,913.9,1343.3,918.1,1325.1z"/>
	<path class="st35" d="M826.2,1422.1c-87.9-8.5-107.2-173,42.6-196.5c42.9-5.7,53.5,30.4,53.5,30.4c3.3,12.5,2.4,40-4.2,69.1
		c4.2-18,7.5-40.7,7.8-69.3c-5.1-17.7-17.9-31.7-43.5-36.7c-37.5-3.4-103.7,25.6-121.8,73.5c2.8,4.9,4.6,11.5-2.2,16.3
		c1.3,0.7,1.4,1.1-0.2,3c-10.7,10.2-10.8,117.6,76.3,114.5c31.1-0.2,52.8-25,63.3-47c0.1-0.3,0.3-0.6,0.4-0.9
		C882.6,1405.9,859.3,1425.8,826.2,1422.1z"/>
</g>
<linearGradient id="SVGID_6_" gradientUnits="userSpaceOnUse" x1="725.8981" y1="1316.4891" x2="747.02" y2="1316.4891">
	<stop  offset="0" style="stop-color:#FFFFFF"/>
	<stop  offset="0.1224" style="stop-color:#FBFBFB"/>
	<stop  offset="0.2475" style="stop-color:#EFEFEF"/>
	<stop  offset="0.374" style="stop-color:#DADADA"/>
	<stop  offset="0.5013" style="stop-color:#BDBDBD"/>
	<stop  offset="0.6295" style="stop-color:#989898"/>
	<stop  offset="0.7583" style="stop-color:#6B6B6B"/>
	<stop  offset="0.8851" style="stop-color:#363636"/>
	<stop  offset="1" style="stop-color:#000000"/>
</linearGradient>
<path class="st36" d="M741.2,1319.9c-1.3,3.8-2.8,4.3-2,6.9c0.7,2.7-11.1,11.5-12.9,6.2c-1.8-5.3,5.1-20.6,5.8-23.2
	c0.1-0.3,0.3-0.9,0.6-1.7c-0.1,1.2-0.2,2.3,0,3c6.6-9.4,10.7-11.3,12-11.3c0.7,0,1.5-0.7,2.3-1.6
	C740.2,1315,742.5,1316.2,741.2,1319.9z"/>
<linearGradient id="SVGID_7_" gradientUnits="userSpaceOnUse" x1="690.3671" y1="1326.3326" x2="724.9551" y2="1326.3326">
	<stop  offset="0" style="stop-color:#FFFFFF"/>
	<stop  offset="0.1224" style="stop-color:#FBFBFB"/>
	<stop  offset="0.2475" style="stop-color:#EFEFEF"/>
	<stop  offset="0.374" style="stop-color:#DADADA"/>
	<stop  offset="0.5013" style="stop-color:#BDBDBD"/>
	<stop  offset="0.6295" style="stop-color:#989898"/>
	<stop  offset="0.7583" style="stop-color:#6B6B6B"/>
	<stop  offset="0.8851" style="stop-color:#363636"/>
	<stop  offset="1" style="stop-color:#000000"/>
</linearGradient>
<path class="st37" d="M724.9,1333.5c0,0-4.6-12.5-3.5-21.1c1.1-8.7-9.2-19.8-12-29.1c-5.1,4.7,1.7,22.9,2.6,27.3
	c0.8,4.5-5.7,7.9-6.6,5.3c-0.9-2.6-6.4-15.9-8.2-19.3c-1.8-3.5-0.2-6.6-2-18.3c-2.9,0.2-4.4,8.4-4,14.1s-2.7,11.6,1.1,18.1
	c3.6,4.4,1.9,19.5,0.7,26.9c-1.9,3-1.1,13.3,2,24.6c-3.4,9.9,7.5,12.4,7.5,12.4s2.3-4.1,0.8-6.8c-1.5-2.6-0.8-10.1,0.3-10.2
	c19-1,15.8-13.3,15.8-15.9C719.4,1339.1,725.6,1337.8,724.9,1333.5z M709.2,1351.6c-1.9,4.6-3.9,2.3-7.3,0.3c-3.4-2-2.1-2.1-3.8-7.1
	c-1.7-4.9,0.5-11.4,3.3-8.1c2.8,3.3,0.9,0.5,6,5.3C707.5,1342.1,711.2,1346.9,709.2,1351.6z"/>
<g>
	<text transform="matrix(1 0 0 1 598.0371 1022.1885)" class="st38 st39 st40">Arya</text>
</g>
<path class="st41" d="M845.6,1387.4c-2.2,0.1-1.9,9.6-11.9,5.7c-0.1,0-0.2-0.1-0.3-0.1c-0.6-0.3-0.9-0.2-1.1,0
	c-0.1,0.2-0.2,0.3-0.2,0.3c-0.3-0.2-0.6-0.5-0.8-0.8c-1.6-2.1-2-5.7-1.8-8.3c0-0.4,0.1-0.9,0.2-1.2c1.3,0.2,2.9-0.4,4.7-1.2
	c2.9-1.4,6.2-3.7,8.8-4.2c0.4-0.1,0.8-0.1,1,0.1C846.7,1378.5,844.3,1386.3,845.6,1387.4z"/>
<path class="st42" d="M844.4,1375.4c-0.1,0.2-0.2,0.9-0.2,2.1c0,0.2,0,0.5,0,0.7c-1.6,5.5-6.8,4.1-10.1,6.9
	c-0.2,0.2-0.4,0.3-0.6,0.5c-2.5,1.9-1.1-0.6-4-1.5c-0.1,0,0.1,0,0,0c0.2-2-0.4-3.6-0.8-4.8c-0.3-0.8-0.6-1.3-0.9-1.7
	c-0.3-0.3-0.7-0.5-0.9-0.4c-0.3,0.1-0.5,0.1-0.6-0.1c-0.2-0.4-0.1-1.2,0.6-1.5c0.8-0.4,1.8-4,4-4.9c0.9-0.4,1.8-0.9,2.5-1.6
	c1.4-1.2,2.5-0.4,4.2-0.6c2.2-0.3,4.2-0.5,7,0C847.5,1369.2,844.8,1374.9,844.4,1375.4z"/>
<linearGradient id="SVGID_8_" gradientUnits="userSpaceOnUse" x1="826.26" y1="1384.46" x2="834.4873" y2="1384.46">
	<stop  offset="0" style="stop-color:#FFFFFF"/>
	<stop  offset="0.1224" style="stop-color:#FBFBFB"/>
	<stop  offset="0.2475" style="stop-color:#EFEFEF"/>
	<stop  offset="0.374" style="stop-color:#DADADA"/>
	<stop  offset="0.5013" style="stop-color:#BDBDBD"/>
	<stop  offset="0.6295" style="stop-color:#989898"/>
	<stop  offset="0.7583" style="stop-color:#6B6B6B"/>
	<stop  offset="0.8851" style="stop-color:#363636"/>
	<stop  offset="1" style="stop-color:#000000"/>
</linearGradient>
<path class="st43" d="M834.1,1383c-0.5,0.8-0.6,1.7-0.6,2.7c0,2.4,1,5.2,0.3,7.3c0,0,0,0-0.1,0c-0.2,0-0.8,0.1-1.4-0.1
	c-0.3-0.1-0.6-0.2-1-0.5c-1.6-2.1-2-5.7-1.8-8.3c-0.1,0,0.1,0,0,0c0.2-2-0.4-3.6-0.8-4.8c-0.2-1.3-0.5-1.6-0.9-1.7
	c-0.5-0.1-1.1,0.2-1.6-0.3c0,0,0-0.1,0.1-0.1c1.3-2.3,2.6-1.4,3.3-0.5c0.8,0.9,0.8,1.5,2.4,2.3c1.2,0.8-0.4,1.3,1.2,1.7
	c0.7,0.2,1.1,0.6,1.2,0.9C834.6,1382.1,834.4,1382.6,834.1,1383z"/>
<path class="st44" d="M832.2,1393.4c0,0,9.4,4.8,13.2-6.5c0,0.2,0.1,0.3,0.1,0.5c1.8-0.1,0.3,7,3,13.5c2.7,6.4,6.1,23.7,0,23.7
	C842.8,1424.5,834.8,1396.7,832.2,1393.4"/>
<polygon class="st45" points="798.8,1365.5 822.8,1384.8 805.9,1403.5 779.8,1385.3 "/>
<circle class="st46" cx="814.9" cy="1385.9" r="5.3"/>
<circle class="st47" cx="806.4" cy="1395.6" r="5.3"/>
<circle class="st48" cx="800.6" cy="1378.6" r="5.3"/>
<circle class="st49" cx="793" cy="1388.4" r="5.3"/>
<g>
	<path d="M822.8,1384.8c0-0.3,0.1-0.6,0.2-0.9l0.5-0.6l1-1.2l1-1.2l0.5-0.6c0.3-0.1,0.5-0.3,0.8-0.4c0,0.3-0.1,0.6-0.2,0.9l-0.5,0.6
		l-1,1.2l-1,1.2l-0.5,0.6C823.4,1384.5,823.1,1384.6,822.8,1384.8z"/>
</g>
<path class="st50" d="M781.2,1357.1c-6.9-6.9-10,0.6-12.9,3.6c-0.7,0.8-5.2-7.1-9.4-3.6c-6.3,8.2,6,14.4,14.4,19.3
	C774.5,1366.1,788.1,1364,781.2,1357.1z M771.9,1372c-3.7-2.8-16.3-12.5-9.6-11.8c4.6,0.3,6.3,4.2,6.3,4.2c0.8,1.9,2.1,1,2.5-0.8
	c0.4-1.8,3.1-8.4,7-5.9C782.2,1360.2,772.7,1367,771.9,1372z"/>
<path class="st28" d="M725.8,1205.9c6.4,11.9,10.1,25.5,3.8,37.9s-11.3,27.7-24.9,23.6c-3.1-2.1,1.3-4.3,4.7-6.9
	c4.3-4.4,14.3-9.4,14.7-34.3C723.9,1216.1,728.2,1213.5,725.8,1205.9z"/>
<linearGradient id="SVGID_9_" gradientUnits="userSpaceOnUse" x1="713.4689" y1="1215.8246" x2="725.8508" y2="1268.0312">
	<stop  offset="6.697879e-02" style="stop-color:#4F3628"/>
	<stop  offset="0.1356" style="stop-color:#483024"/>
	<stop  offset="0.3395" style="stop-color:#36241A"/>
	<stop  offset="0.4896" style="stop-color:#301F16"/>
	<stop  offset="0.653" style="stop-color:#362319"/>
	<stop  offset="0.8615" style="stop-color:#452F22"/>
	<stop  offset="0.9559" style="stop-color:#4F3628"/>
</linearGradient>
<path class="st51" d="M734.3,1250.4c-2.2,4-5.4,8.4-10.1,13.1c-0.3,0.3-0.6,0.5-1,0.6c-5.2,1.8-13.6,9.6-17.5,11.7
	c-1,0.5-2.2,0.5-3-0.3c-2.3-2.2,3.4-5.8,3.7-8.2c0,0,0-0.1,0-0.1c2.5-1.2,5.2-2.8,7.4-5.5c6.7-7.9,22.8-26,11-57.5
	c1.8-1.4,4.6-2,7.6-1.4c0.2,0.9,0.4,1.8,0.5,2.6c1,5.4,6.9,6.1,5,13.2c-0.1,0.2-0.1,0.4-0.1,0.6
	C737.6,1227.9,741.3,1237.5,734.3,1250.4z"/>
<path class="st28" d="M689.3,1177.2c13.8-1.1,19.6,3,22.4,8.4s7.3,3,8.7,7.9c1.4,4.9,11.9,14.7,9.2,25.4c-0.6,3.8-3,12.5-3,12.5
	c0.3-9.4,2.4-21-0.8-26c-1.7-2.9-4.4-3.1-5.6-5.1c-1.2-1.7-0.5-4.9-2.5-7.9c-1.3-2-5-0.8-7.1-5.1
	C708.6,1183,704.5,1178.2,689.3,1177.2z"/>
<g>
	<path class="st52" d="M676.2,1185.6c2.1-1.7,3.8-3.8,5.7-5.8c1-1,2-1.9,3.2-2.6c0.6-0.3,1.3-0.5,2.1-0.5c0.8,0.1,1.3,0.3,2,0.4
		c2.7,0.4,5.4,0.4,8.1,0.9c1.3,0.2,2.7,0.5,4,1c1.3,0.4,2.6,1,3.7,1.8c1.2,0.7,2.2,1.7,3.1,2.7c0.9,1,1.8,2.1,2.5,3.3
		c0.7,1.2,1.3,2.5,2.2,3.1c0.5,0.3,1.1,0.5,1.7,0.6c0.3,0,0.6,0,1,0.1l0.6,0.1c0.2,0.1,0.4,0.1,0.5,0.2c0.4,0.1,0.7,0.4,1,0.6
		c0.2,0.3,0.5,0.6,0.7,0.9c0.4,0.6,0.6,1.3,0.8,2c0.4,1.3,0.5,2.7,0.9,3.9c0.2,0.6,0.4,1.2,0.8,1.7l0.3,0.4l0.3,0.3
		c0.2,0.2,0.5,0.4,0.8,0.6c1.1,0.7,2.3,1.6,3.2,2.8c0.9,1.2,1.3,2.6,1.6,4c0.3,1.4,0.2,2.8,0.1,4.2c-0.1,0.7-0.1,1.4-0.2,2.1
		c-0.1,0.7-0.2,1.4-0.3,2c-0.3,1.3-0.6,2.7-0.8,4c-1,5.3-1,10.8-2,16.1c-0.9,5.4-2.8,10.6-5.9,15.2c-3.2,4.5-7.3,8.1-11.9,11.1
		c4.4-3.1,8.5-6.8,11.5-11.4c3-4.5,4.8-9.7,5.6-15c0.9-5.3,0.9-10.8,1.9-16.2c0.3-1.4,0.5-2.7,0.8-4c0.1-0.7,0.2-1.3,0.3-2
		c0.1-0.7,0.1-1.3,0.2-2c0.2-2.6,0-5.4-1.6-7.5c-0.7-1-1.8-1.8-2.9-2.5c-0.3-0.2-0.6-0.3-0.9-0.6l-0.4-0.4l-0.3-0.5
		c-0.4-0.6-0.7-1.3-0.9-2c-0.4-1.4-0.6-2.7-0.9-4c-0.2-0.6-0.4-1.3-0.7-1.8c-0.1-0.3-0.3-0.5-0.5-0.7c-0.2-0.2-0.4-0.4-0.7-0.5
		c-0.1-0.1-0.3-0.1-0.4-0.2l-0.4-0.1c-0.3-0.1-0.7-0.1-1-0.1c-0.7-0.1-1.4-0.3-2.1-0.7c-0.7-0.4-1.1-1.1-1.5-1.7l-1-1.8
		c-0.7-1.2-1.5-2.2-2.4-3.2c-0.9-1-1.8-1.9-2.9-2.7c-1.1-0.8-2.3-1.3-3.5-1.8c-1.3-0.5-2.6-0.8-3.9-1c-2.6-0.5-5.4-0.6-8.1-1
		c-0.7-0.1-1.4-0.4-2-0.4c-0.6,0-1.3,0.1-1.9,0.4c-1.2,0.6-2.2,1.5-3.2,2.4C680.2,1181.9,678.3,1183.9,676.2,1185.6z"/>
</g>
<path class="st25" d="M687.1,1273.1c0.2-4.3-0.8-8.9-2.2-12.3l-4.1-2.9c-9.6,6.5-28.7,15.5-29.9,29.9c-1.2,14.3,7.7,35,11.9,34.5
	c5.6-0.9,5.7-4.2,7.9-5.3c-0.3,6.7-0.2,18.9,2.1,25.2s-1.3,21.2,5.5,21.8c1.7-21.8-1.7-19.8-2.6-27.2c-1.2-14.2,5-12.8,3.7-29.4
	c-1.5-7.9-0.5-11.7,0.5-14.1c0.8-1.8,2-3.3,3.6-4.4c0.5-0.4,1.2-0.9,1.9-1.7C688.6,1284,686.8,1277.5,687.1,1273.1z M672.7,1315.2
	c0,0-1,4.4-1.2-1.9c-0.2-5.7-5.3-14.6-7.2-17.8c-0.2-0.3-0.1-0.7,0.1-0.9c0.5-0.5-0.2-2.5,0.5-4.7c0.5-1.8,2.4-1.1,3.7-0.1
	c0.7,0.6,1.1,1.5,1.2,2.4C670.1,1296.1,673.9,1303.9,672.7,1315.2z"/>
<linearGradient id="SVGID_10_" gradientUnits="userSpaceOnUse" x1="702.207" y1="1261.6227" x2="734.28" y2="1261.6227">
	<stop  offset="6.697879e-02" style="stop-color:#4F3628"/>
	<stop  offset="0.1356" style="stop-color:#483024"/>
	<stop  offset="0.3395" style="stop-color:#36241A"/>
	<stop  offset="0.4896" style="stop-color:#301F16"/>
	<stop  offset="0.653" style="stop-color:#362319"/>
	<stop  offset="0.8615" style="stop-color:#452F22"/>
	<stop  offset="0.9559" style="stop-color:#4F3628"/>
</linearGradient>
<path class="st53" d="M734.3,1250.4c-2.2,4-5.4,8.4-10.1,13.1c-0.3,0.3-0.6,0.5-1,0.6c-5.2,1.8-13.6,9.6-17.5,11.7
	c-1,0.5-2.2,0.5-3-0.3c-2.3-2.2,3.4-5.8,3.7-8.2c0.3,0.1,0.5,0.3,0.7,0.5c0,0,12-8,15.6-16.9
	C725.8,1243.5,732.3,1248.6,734.3,1250.4z"/>
<path class="st24" d="M758.7,1308.7C758.7,1308.7,758.7,1308.7,758.7,1308.7c0,0,0,0.1,0.1,0.2c-0.3,0-0.4,0-0.4,0
	c-5.5-3.9-7.9-6.9-7.8-12c0.9-2.1,1.9-0.3,2.1-0.8c1.9-3.8,7-4.2,7.8-3.5C766.5,1300.6,760.8,1307.2,758.7,1308.7z"/>
<path class="st28" d="M706.5,1193.4c-0.2,0-0.4,0-0.6,0c-26.2,5.2-21.2-3.4-26.1-0.6c-5,2.8-2.1,25.3-0.1,40.6
	c2.7,14.8,12.4,18.2,11.2,25.1c-3.3,14.5-6.5,0.1-9.8,3.5c-1.7,3.3-11.1,13.8-10.4,8c0.7-5.8,4.8-7,8.4-11.7
	c4.4-6.2-2.9-12.4-4-24.8c-0.3-3.6-1-7.2-1.8-10.8c-2-9.2-2.2-16.6,0-24.6c0-0.2,0.1-0.3,0.1-0.5c0.8-9.8,2.7-13.4,5.5-16.6
	c1.5-0.4,2.9-1,4-2C689,1173.3,701.9,1181.1,706.5,1193.4z"/>
<path class="st15" d="M676.7,1101.3"/>
<path class="st54" d="M938.3,1135.9c-64.3-55.8-232.6-53.2-261.2-34.9c-0.2,0.1-0.3,0.2-0.5,0.3c-15.6,9.9-25,46.1,114.1,63.4
	c124.6,8.9,143.6-5.5,148.2-18.5c0.4-1.1,0.7-2.2,0.9-3.3c0,0,0,0,0,0C940.1,1140.6,939.4,1137.6,938.3,1135.9z M809.7,1160.7
	c-22.2-1.4-46.4-5.1-68.2-10.3c-6.4-1.5-12.5-3.2-18.4-5c0,0,0,0,0,0c-36.7-11.1-60.8-26.4-44.9-40.8c15.6-13,85-13,85-13
	c21.1,0,42.6,2.1,63.1,5.5c59,9.8,108.4,30.8,108,45C933.6,1161.3,879.4,1165,809.7,1160.7z"/>
<g>
	<path class="st55" d="M899.7,1374.1c7.3-11.5,8.2-3.8,8.2-3.8s0.5-2.6,1.8-2.1c2.1,0.1,2,4.8,0.6,8.9c-1.5,5-2.3,6.3-5.2,6.3
		c-10.4-0.1-34.3-0.3-39.2-0.3c-6-0.1-7-0.1-9.3-2c-0.1-0.1-0.3-0.2-0.4-0.3c-4.9-3.8-6.8-8.9-7.1-14.3c-0.4-7.7,2.5-16,4.9-21.9
		c-0.6-0.3-1.2-0.6-1.8-1c-19.2-11.5-10.8-39.7-8.9-43.2c-10.4,0.4-12.6-16.2-13.5-26.3c-0.3-3.6,1.5-7,4.4-8.1
		c0.1,0,0.2-0.1,0.3-0.1c1.3-0.4,2.6-0.6,4-0.6c1.1,0,2.2,0.1,3.3,0.3c8.5,1.4,17.6,8.1,19.7,13.6c12-6.4,23.4-3.7,29.2,0
		c4.7-10.6,15.4-10.9,21.8,0.1c1.7,2.6,3.1,5,4,7.2c2.3,5.7,1.1,10.2-7.5,13.7c0,0,0,0,0,0.1c3,6.6,10.3,37.9-13.6,45.7
		c7.5,7.6,9.8,14.2,9.8,19.2c-1.1,0.1-2.1,0.5-2.9,1.3c-0.9,0.8-1.7,1.9-2.6,3.3"/>
	<path class="st56" d="M916.6,1286.5c-0.1,0.6-0.3,1.2-0.5,1.7c-12.4-20.8-19.7-11.7-23-6.2c-0.8,1.3-2.3,1.8-3.5,1
		c-10.4-6.3-21.8-2.2-26.9,0c-1.2,0.5-2.5,0-3.3-1.3c-5.2-9.2-12.7-12.7-18.2-14.7c0-0.5,0.2-1,0.6-1.4c8.5,1.4,17.6,8.1,19.7,13.6
		c12-6.4,23.4-3.7,29.2,0c4.7-10.6,15.4-10.9,21.8,0.1C914.2,1281.9,915.7,1284.3,916.6,1286.5z"/>
	<path class="st57" d="M895.3,1346.1C895.3,1346.1,895.3,1346.1,895.3,1346.1c0.6,0.6,1.2,1.2,1.7,1.8c0,0,0,0,0,0
		c1.8,2.2,4,5.3,4,5.3c-2.1,1-6,3.9-6,3.9l-1.1-1.9c-5.4,1.8-24.3,4.3-34.7-1.6c-1.7-1-3.8,0.1-4.3,2.3c-0.4,1.5-0.6,3.2-0.6,4.8
		c0,0,0,0.1,0,0.2c0,1.3,0,2.6,0.1,3.9c0,0,0,0,0,0.1c0.1,1.2,0.2,2.4,0.4,3.5c-2-0.5-4-1.1-5.8-1.8c-0.1,0-0.2-0.1-0.2-0.1
		c-0.4-7.7,2.5-16,4.9-21.9c-0.6-0.3-1.2-0.6-1.8-1c-19.2-11.5-10.8-39.7-8.9-43.2c-9.9,0.3-12.7-14.9-13.5-26.3
		c-0.3-3.6,1.5-7,4.4-8c0.1,0,0.2-0.1,0.3-0.1c1.3-0.4,1.1-0.5,2.5-0.5c0.8,0,2.1,0.5,2.1,0.5c7.4,2.2,14.8,8.1,17.8,14.6
		c0.7,1.8,0.6,4.4-1.3,6.2c-2.2,2.5-11.7,12.8-12.2,28.6c-1.4,20.6,14.4,23.1,19,15.8c1.9-1.3,28.5,17.4,44.1,0.3
		c5.1-4.8,5.8-18,1.3-26.1c-1.7-0.6-13.5,5.8-13-10.8c0.6,6.2,2.3,10.8,14.4,5.9C911.9,1307,919.2,1338.2,895.3,1346.1z"/>
	<path class="st58" d="M876.3,1363.3c5.9-0.2,12.4-1.1,19.8-2.4c6.8,13.5-6.2,19.4-8.1,22.3c-5-0.2-21.9-0.3-27.9-0.6
		c-1.6-0.1-3.1-0.7-4.4-1.9c-3.3-3-8.7-10-6.3-21.5c4.9,1.8,10.1,3,15,3.6c2.2,2.5,7.5,6.3,9.2,3.7
		C875.3,1364,876.3,1363.3,876.3,1363.3"/>
	<ellipse class="st59" cx="857.8" cy="1315.3" rx="5.8" ry="7"/>
	<path class="st60" d="M896.9,1280.3c0.8,11.6,1.4,15.8,6.1,15.1c4.7-0.7,13.8-6.1,13.8-8.5c3,7.2-1.6,11-8.1,13.6
		c-6.1,2.1-12.5,4.7-13.7-5.1c-0.1-1.1-0.2-2.2-0.1-3.4C895,1283.5,896.9,1280.3,896.9,1280.3z"/>
	<path class="st61" d="M834.7,1266.2c-2.5,4.5,0.7,33.2,11,28.8c6.2-11.2,8.1-9.8,8.1-12C853.4,1277.9,841.3,1266.4,834.7,1266.2z"
		/>
	<ellipse class="st59" cx="894.7" cy="1315.5" rx="5.8" ry="7"/>
	<ellipse class="st62" cx="860.5" cy="1313.8" rx="1.4" ry="1.6"/>
	<ellipse class="st62" cx="892" cy="1313.8" rx="1.4" ry="1.6"/>
	<path class="st63" d="M896,1361.5c1.1,8.9-1.8,15.8-15.3,15.2c-13.6-0.7-18.4,6.3-18.4,6.3l25.6,0.3c0,0,10.4-5.5,9.8-14.2
		C897.2,1360.4,896,1361.5,896,1361.5z"/>
	<path class="st64" d="M892.7,1351.8c0.8,4.9,7.3,11.7,4.5,20.7c-0.8,2.6-2.3,4.8-4.1,6.5c-2.5,2.3-5.2,4.2-5.2,4.2"/>
	<ellipse class="st65" cx="901.2" cy="1327" rx="4.6" ry="2.9"/>
	<path class="st57" d="M903.3,1369.6c-1.9,4-1.2,6.8-3.4,8c-2.2,1.2-10.2,3-10.3,4.5c-0.1,1.5,15.1,0.7,15.5,0.7
		c0.4,0,3,0.6,3.9-2.6s4.3-12.6,0.2-11.7C905,1369.5,906.6,1364.3,903.3,1369.6z"/>
	<ellipse class="st65" cx="851.5" cy="1326.9" rx="4.6" ry="2.9"/>
	<path class="st66" d="M853.1,1377.9c-4.4,0.6-9.1,0.7-10.7-3c-1.6-4.1,4.3-7.2,5.2-0.8c0.7,5.7-6.3,6.8-8.1,3.7"/>
	<path class="st67" d="M853.4,1344.6c14.5,6.4,30.5,5.2,42.2,1.6"/>
	<path class="st68" d="M833.9,1266.1c8.1-0.2,22.7,15.2,19.4,18.3c-3.2,3.1-7,8.7-10.2,16"/>
	<path class="st68" d="M896,1279.3c-1.6,11.7-6.2,30.8,12.9,21"/>
	<path class="st69" d="M873.4,1353.3c2.8,6.3,3.9,11.3,1.3,13.3c-2.6,2.1-7.2,1.9-14.7-10.1"/>
	<path class="st70" d="M876.1,1362c-2.8,0.7-4.2,1.3-7,5c1.5,1.1,5.4,1.3,6.4-1.1S876.4,1362.9,876.1,1362z"/>
	<path class="st63" d="M856.4,1381c-0.1-0.1-0.3-0.2-0.4-0.3c-7-5.5-7.9-13.6-6.7-21.3l4.9,1.3c0,0,0,0.1,0,0.2c0,0.6,0,2,0.1,3.9
		c0,0,0,0,0,0.1c0.1,2.3,0.4,5,1.1,7.1c0,0,0,0,0,0s0,0,0,0c0,0,0,0,0,0c0.3,1.4,0.5,3.1,0.7,4.8c0,0,0,0,0,0
		C856.3,1378.2,856.4,1379.6,856.4,1381z"/>
	<path class="st71" d="M899.6,1374.1c7.3-11.5,8.2-3.8,8.2-3.8s0.5-2.6,1.8-2.1c2.1,0.1,2,4.8,0.6,8.9c-1.5,5-2.3,6.3-5.2,6.3
		c-10.4-0.1-34.3-0.3-39.2-0.3c-6-0.1-7-0.1-9.3-2c-0.1-0.1-0.3-0.2-0.4-0.3c-4.9-3.8-6.8-8.9-7.1-14.3c-0.4-7.7,2.5-16,4.9-21.9
		c-0.6-0.3-1.2-0.6-1.8-1c-19.2-11.5-10.5-38.5-8.9-43.2c-10.4,0.4-12.6-16.2-13.5-26.3c-0.3-3.6,1.5-7,4.4-8.1
		c0.1,0,0.2-0.1,0.3-0.1c1.3-0.4,2.6-0.6,4-0.6c1.1,0,2.2,0.1,3.3,0.3c8.5,1.4,17.6,8.1,19.7,13.6c12-6.4,23.4-3.7,29.2,0
		c4.7-10.6,15.4-10.9,21.8,0.1c1.7,2.6,3.1,5,4,7.2c2.3,5.7,1.1,10.2-7.5,13.7c0,0,0,0,0,0.1c3,6.6,10.3,37.9-13.6,45.7
		c7.5,7.6,9.8,14.2,9.8,19.2c-1.1,0.1-2.1,0.5-2.9,1.3c-0.9,0.8-1.7,1.9-2.6,3.3"/>
	<path class="st69" d="M864.4,1362.8c-4.6-0.7-10-1.9-15.1-3.4"/>
	<path class="st69" d="M896.3,1360.5c-6.8,1.8-13.2,2.8-19.8,2.9"/>
	<path class="st69" d="M848.9,1366c10,4.5,37.1,5.2,49,1.5"/>
	<path class="st72" d="M889.5,1327.8c0,0.3-0.3,0.9-0.4,1.1c0,0.3-0.2,0.5-0.3,0.7c0,0,0.1,0.7-0.6,0.8c-0.4,1.1-1.9,1.7-2.9,1.9
		c-4.8,1-14.6,0.7-19.2-0.4c-1.6-0.3-2.6-2-2.5-3.9c0.4-5.6,3.3-9.1,6.7-10.7c0.6-0.3,1.2-0.5,1.9-0.7c1.3-0.4,2.6-0.5,3.8-0.4
		C884.7,1316.7,889.4,1323.1,889.5,1327.8z"/>
	<path class="st73" d="M888.5,1328.3c0,0.3,0,0.6-0.1,0.9c0,0.3-0.1,0.5-0.2,0.8c0,0,0,0,0,0l0,0c-1.7,2.3-13.5,1.4-16.7-0.6
		c-3-1.7-2.6-6.8-1.4-10.2c0.5-1.3,1.5-2.3,2.8-2.7c0,0,0,0,0,0c1.3-0.4,2.1-0.5,3.7-0.4C885.4,1316.5,888.4,1323.6,888.5,1328.3z"
		/>
	<ellipse class="st59" cx="870.7" cy="1326" rx="1.5" ry="2.8"/>
	<ellipse class="st59" cx="881.6" cy="1326" rx="1.5" ry="2.8"/>
	<path class="st66" d="M873.4,1367.2c-0.9,0.6-3.2,3.6-4.3,7.2"/>
	<path class="st38" d="M868.5,1375.2c3.2-8.7,6-7.1,7.4-5.4c0.5,0.6,1.3,0.6,1.8,0c0.5-0.7,1.2-1.2,1.8-0.5
		c2.1,4.4,0.1,9.5-1.4,12.4c-0.7,1.4-2,2.2-3.4,2.2c-3.2-0.1-9.3-0.2-12.4-0.2c-1.5,0.2-3-0.4-4.3-1.4c-3.7-3.2-3.9-9.6-0.7-13.5
		c4.9-5.8,11-1.3,14.4,0.6c0,0,5.9,2.5,8.4,1"/>
	<path class="st57" d="M856.8,1370.8c1.6,6.6,2.7,8.7,12.6,7.7c1.8-0.7,2-7.2,5.6-7.4c3.5-0.2,6.2-3.1,5.3,2.7
		c-0.9,5.9-2.3,10.4-7.3,10c-5-0.4-14.5,1.1-15.5-2.1C856.4,1378.4,853,1374.3,856.8,1370.8z"/>
	<path class="st74" d="M857.8,1369.4c4.1-0.3,4-2.5,12.2,2.5c1.2-1.8,1.8-2.6,1.8-2.6S861.7,1361.5,857.8,1369.4z"/>
	<path class="st75" d="M868.5,1375.2c3.2-8.7,6-7.1,7.4-5.4c0.5,0.6,1.3,0.6,1.8,0c0.5-0.7,1.2-1.2,1.8-0.5
		c2.1,4.4,0.1,9.5-1.4,12.4c-0.7,1.4-2,2.2-3.4,2.2c-3.2-0.1-9.3-0.2-12.4-0.2c-1.5,0.2-3-0.4-4.3-1.4c-3.7-3.2-3.9-9.6-0.7-13.5
		c4.9-5.8,11-1.3,14.4,0.6c0,0,5.9,2.5,8.4,1"/>
	<path class="st76" d="M888.3,1328.3c0,0.3,0,0.6-0.1,0.9l0,0c-1.7-11-10-12.5-17.4-11.8c0.5-0.3,1.1-0.5,1.6-0.7
		c1.3-0.4,2.6-0.7,3.8-0.6C885.1,1316.5,888.2,1323.6,888.3,1328.3z"/>
	<path class="st77" d="M889.2,1328.6c-0.6-9.8-7.2-13.4-13.6-13.4c-7.1,0.4-12.4,6.4-12.4,13.2c0,2.1,1.2,4,2.9,4.5
		c5,1.4,15.4,1.3,20.6-0.1C888.2,1332.1,889.2,1330.4,889.2,1328.6z"/>
	<path class="st78" d="M876.7,1334.1c-14.4-5.2-16.8,15.9-0.4,15.4C889,1351.4,892.9,1330.7,876.7,1334.1z"/>
	<path class="st79" d="M865.9,1341.7c1.6-4.7,6-3,6.3-3c0.1-2.3,2.9-4.4,2.9-4.4s-4.1-1.3-7.3,0.8c-1.2,0.8-2.1,2.1-2.4,3.7
		C865,1341,865.9,1341.7,865.9,1341.7z"/>
	<path class="st79" d="M877.5,1334.6c0,0,2.8,2.3,2.7,4.4c1.2-1.2,4.8-1.3,6.5,2.4C887.4,1339.8,886.9,1332.6,877.5,1334.6z"/>
	<path class="st66" d="M876.7,1334.4c-14.4-5.2-16.8,15.9-0.4,15.4C889,1351.8,892.9,1331.1,876.7,1334.4z"/>
	<path class="st58" d="M876.9,1339.1c-3.7,0-6.7,3.6-6.7,8c0,4.4,3,8,6.7,8c3.7,0,6.7-3.6,6.7-8
		C883.6,1342.7,880.6,1339.1,876.9,1339.1z M876.9,1351c-1.8,0-3.2-1.7-3.2-3.9c0-2.1,1.4-3.9,3.2-3.9s3.2,1.7,3.2,3.9
		C880.2,1349.3,878.7,1351,876.9,1351z"/>
	<path class="st80" d="M872.8,1341.2c-1.6,1.8-2,4.4-2,4.4l3,2.7c0,0-0.7-4.7,2.9-4.6c2.8-0.2,3.7,1.9,3.7,4.1
		c1.1-0.7,2.6-2.2,2.6-2.2s-0.9-4.7-2.8-4.8C879.1,1344.7,874.8,1344.7,872.8,1341.2z"/>
	<path class="st66" d="M876.9,1339.1c-3.7,0-6.7,3.6-6.7,8c0,4.4,3,8,6.7,8c3.7,0,6.7-3.6,6.7-8
		C883.6,1342.7,880.6,1339.1,876.9,1339.1z M876.9,1351c-1.8,0-3.2-1.7-3.2-3.9c0-2.1,1.4-3.9,3.2-3.9s3.2,1.7,3.2,3.9
		C880.2,1349.3,878.7,1351,876.9,1351z"/>
	<ellipse class="st78" cx="876.4" cy="1339.1" rx="3.8" ry="4.6"/>
	<path class="st79" d="M879.2,1337.8c-3.3,0.3-5.1,3-4.6,5.6c-1.3-0.9-3.6-5.1-0.7-7.9c1-0.9,2.2-1,3.3-0.5
		C879,1335.8,879.9,1336.9,879.2,1337.8z"/>
	<ellipse class="st66" cx="876.4" cy="1339.1" rx="3.8" ry="4.6"/>
</g>
<path d="M324.8,1294.4c-1.1,0.6-2.3,1.3-3.4,2C322.9,1295.3,324,1294.6,324.8,1294.4z"/>
<path class="st0" d="M569.2,1479.1c-1.5,0.5-2.9,1.1-4.3,1.9c-71.2,42.5-121.4-8.4-141.2-14.7c-3.8-1.4-14.5,1.4-19.4-1.6
	c-62.8-9.6-83.6-66.3-90.3-73.2c-9.8-8.4-18.2-26.1-15.6-42.4c-2.2-17.1-0.3-25.9,2-31.2c0.9-2.1,1.9-3.6,2.7-5
	c5.8-6.9,12-12.5,18.2-16.4c-7,5.5-20,20.5-20.9,21.4c1-0.7,18.8-13.1,24.3-12.7c-12,11.8-20.5,24.6-21,25.4
	c15.3-17.3,26.3-27,36.1-29.9c-12.8,11.4-29.1,33.9-29,53.6c15.9-24.2,55.8-68.2,110.9-77.5c-30.6,11.8-57.2,29.5-70,59.1
	c30.5-30.7,47.3-29.3,61.3-40.6c-12.8,10.1-25.9,16.7-29.3,31.1c19.5-16.8,32.3-21.9,38-25.7c5.7-3.8,24.6-19.3,27.6-18.6
	c3.1,0.7-14,8.9-10.6,16.2c3.3,7.3,29-5.5,27.9,24.4c-8.9,13.3-10.1,14.5-13.4,19.2c-3.3,4.7-7.5,3-9,16c-1.6,13,12.5,57,86.3,73.4
	c2.5,0.5,3.3,0.8,1.2,2.2c-2,1.3-6.5-1.7-4.6,3.3c1.8,5,6.6,3,8,1.8c1.4-1.2,2.2,3,4.9,2.1c1.8-0.4-3.2,15.2,13.3,14.9
	C555.2,1469.9,566,1462.3,569.2,1479.1z"/>
<path d="M856.9,340.2c-28.6,0.1-61.2,12.2-78.6-4.1c27.7,12,47.6-0.3,78.1,3.3c-7.2-13.4-15.2-26.4-18.9-40.3
	c-0.2-0.6,0.5-1.2,1.1-0.9c0,0,0,0,0,0c0.7,0.3,1.4-0.5,1-1.1c-15.7-23.8-19.3-16.9-28.2-29.4c-46.3-62.8-95.3-71.2-111.3-75.9
	c0,0-0.1,0-0.1,0c-55.2-27.6-126.6,19.4-126.2,29c0,0.3-0.1,0.5-0.3,0.7c-26.3,18.7-12.5,26.8-17.4,27.5
	c-52.7,2.4-61.7,46.4-60.3,52.5c0.1,0.3-0.1,0.6-0.4,0.8c-28,15.5-17.7,18.8-21.3,19.5c-16.7,1.7-11.3,6.8-2.9,10
	c8,3,4.3,9.5,12.6,9.8c0.6,0,0.9,0.6,0.7,1.1c-11.6,23.6-2.4,41.6-6,49.2c-0.1,0.2-0.3,0.3-0.4,0.4c-17.1,6.4-19,28.3,6.7,20.8
	c0.4-0.1,0.8,0.1,0.9,0.5c8.4,28.2,38.4,79.3,48.2,90.6c0.1,0.1,0.2,0.3,0.2,0.5c-0.4,6.3,2,5.3,4.4,5.9c0.1,0,0.3,0.1,0.4,0.2
	c2.5,2.4,5.1,7.9,7.4,13.4c0.9,2.2,1.8,4.5,2.5,6.6c2.6,7.2,5.6,10.7,9.9,11c3.5,0.2,19.2,33.5,24.7,45.3c1.5,3.2,4.1,5.8,7.5,6.9
	c2.2,0.7,4.3,0.9,4.7-1c0.2-1-0.2-2-0.9-2.6c-12.8-12.7-24.8-42.4-24.8-44.4c-0.3-11.6-5.3-22.8-9.6-31.8
	c-3.9-8.2-5.8-17.3-5.4-26.5c0.2-5.1-0.1-10.4-0.7-15.8v0c-3-25.7-12.7-53.4,0.7-75.9c0,0,0,0,0-0.1c5-7.2,10.7-13.4,17.3-20.3
	c0,0,0,0,0.1-0.1c4.9-6.6,10.7-12.6,16.3-19.2c0,0,0,0,0,0c7.1-9.6,13-19.5,12-30.9c-0.1-0.9,1.2-1.2,1.5-0.3
	c1.1,3.2,1.4,6.2,0.9,9.4c0.1-0.2,0.2-0.4,0.3-0.6c-0.3,4.2-2.9,9.5-6.6,15.2c3.7-4.3,7.6-9.1,11.7-14.5c2.5-3.2,9.6-7.3,13-9.1
	c-3.1,1-10.3,3.2-12.6,2.9c-4.5-0.6-6.5-4.5-7.2-6.9c-0.2-0.7,0.5-1.3,1.1-0.9c1.2,0.8,3,1.7,4.4,2c11.4,2.7,19.6,0.5,19.6,0.5
	c-0.6,0.4-10.2,1.8-11.8,2.4c3.7-0.9,16.1-1.8,20-1.1c5.5,1,10.8,1.9,15.8,2.6c-9-1.4-18.8-3.9-29-8.8c-0.8-0.4-0.4-1.7,0.5-1.5
	c30,7.3,48.4,2.3,65.7,12.6c0,0,0,0,0,0c-0.5-0.7-0.9-1.4-1.4-2.2c-2-2.3-3.8-5.5-6.4-6.3c-0.3-0.1-0.7-0.2-1-0.2
	c0.4,0,0.7,0.1,1,0.2c2.8,0.8,4.7,3.6,6.4,6.3c1.1,1.3,2.4,2.4,3.9,2.5c0.1,0,0.3,0,0.4,0.1c0.5,0.3,1,0.7,1.5,1.1c0,0,0,0,0,0
	c40-0.4,61.8-9.7,89.6,8.9c4.2,2.8,8.4,5.5,12.7,8.2c3.4,2.1,6.3,4.5,8.9,6.9c33.5,1.9,57.6,6.8,64,15.1c-6.9-1.6-23.1-7-23.9-5.4
	c6.8,1.8,10.1,6.3,10.6,8.4c-10.3-4.2-28.1-6.1-32.3-8.4c-3.4-1.8-8.8-1.1-14.3-5.4c9.8,11.3,13.1,23.4,19.6,29.1
	c3.4,2.8,15.4,23.7,16.8,29.9c0.1,0.4,0.5,0.7,0.9,0.6c0.7-0.1,1.9-0.4,3.5-1.1c0.3-0.1,0.5-0.4,0.5-0.7c0.2-4.4-14.6-18.9-5.8-22.2
	c0.1,0,0.2-0.1,0.3,0c4.7,0.4,9.6-2.1,13.2-4.5c3.7-2.4,6.7,1,13.2,9.3c0-0.1,0-0.2,0.1-0.3c0,0,0,0,0,0
	C874.7,376.6,866.5,358,856.9,340.2z M481.2,324c1-2.6,3.1-8.3,12.6-12.6c-1.8,2.2-2.2,7.8-2.3,10.8c-1-0.4-5,0.6-6.5,2.4
	C485,323.2,484.2,322.5,481.2,324z M477.8,395.7c-9.8,14.7,4.6,14.5,5.9,16.5C458.9,416.4,470.3,399.8,477.8,395.7z M496.4,422
	c-18.9-54.4-14.1-71.6-3.7-83.7c0.7-0.8,2.4-2.5,3.7-3.1c-1.5,1.8-2.5,3.1-3.2,3.9C475.4,361.4,492.3,398,496.4,422z M796.1,269.8
	c-87.9,7.6-140.5-65.4-208.3-1.7C644.1,203,704.5,265.6,796.1,269.8z M580.1,257.9c48.1-50.1,89.6-41.5,111.6-28.5
	C670.7,223.2,643.2,204.6,580.1,257.9z M688,222.8c-65.6-21.4-86.2,16.5-109.5,29.5C601.8,232.7,629.9,197.1,688,222.8z
	 M583.6,277.5c-48.1,8.3-61,47.2-67.1,70.2C523.9,310.1,539.4,281.4,583.6,277.5z M534.5,491.8c-22.4-24.3-25.2-75.2-17.1-111.2
	C510.1,439.4,526,481.9,534.5,491.8c0.3,0.4,0.6,0.7,1,1.1C535.2,492.6,534.9,492.2,534.5,491.8z M540.4,442.8
	c-12.7-38.1,0-75.2,31.7-95.9C565.7,357.7,529.5,376.6,540.4,442.8z M598.7,328.1c-2.3,6.5-8.9,12.1-11.7,15.6
	c-2.7,3.4-5.3,13.5-14.9,24c-0.6,0.7-1.7-0.1-1.3-0.9c5.5-10.1,8.6-25.1,17.1-31.2c0,0,5.9-4.1,9.4-8.2
	C597.9,326.6,599,327.3,598.7,328.1z M549.5,349.9c-0.4,0.4-0.8,0.8-1.2,1.1C548.7,350.6,549.1,350.2,549.5,349.9
	c11.6-12,14.6-39.9,50.3-55C567,313.9,566,333.6,549.5,349.9z M599.8,277.5c78.1,20,160.1-6.1,185.5,20
	C750,277.5,681.4,309.2,599.8,277.5z M611,287.5c0,0,37.9,19.3,99.9,16.4c2.7-0.1,5.5-0.2,8.2-0.1c38.4,1.1,70.6,15,72.9,29.8
	C770.5,296.4,648.2,324.3,611,287.5z M628.9,306.6c22.3,9.6,50.2,4.7,71.8,18.9C681.4,313.3,642.6,317.4,628.9,306.6z M698.1,327
	c28.8,0.2,53.2-11,77.5,6.6C750.9,318.3,721.5,330.7,698.1,327z"/>
</svg>
